<svg width="1194" height="1044" viewBox="0 0 1194 1044" fill="none" xmlns="http://www.w3.org/2000/svg">
<g opacity="0.75" filter="url(#filter0_f_131_1985)">
<path d="M296.32 635.022C200.322 786.777 340.17 793.594 470.137 768.546C667.218 730.563 954.644 397.226 927.992 296.238C894.677 170.002 416.318 445.329 296.32 635.022Z" fill="url(#paint0_linear_131_1985)"/>
</g>
<path d="M837.23 326.315C813.419 325.571 798.542 327.558 790.403 317.182C789.84 316.465 783.53 308.162 785.862 298.321C788.289 288.084 798.333 283.542 800.114 282.733C809.406 278.525 814.812 282.32 825.96 281.977C848.085 281.299 849.932 265.641 868.188 265.55C886.816 265.459 889.087 281.729 908.601 280.934C922.748 280.355 927.276 271.562 940.965 274.209C943.074 274.618 954.139 276.756 959.523 286.05C965.767 296.83 960.658 310.831 953.864 318.586C947.092 326.319 937.939 328.653 930.499 330.101C895.981 336.829 882.087 327.71 837.234 326.31L837.23 326.315Z" fill="white"/>
<path d="M265.561 859.205C256.918 857.027 246.626 851.679 247.386 842.79C248.065 834.84 257.561 830.743 265.536 830.906C273.51 831.069 281.577 833.702 289.333 831.83C299.466 829.386 306.16 820.078 312.385 811.72C318.988 802.857 326.284 794.152 335.882 788.672C345.479 783.186 357.863 781.441 367.552 786.758C374.971 790.825 380.109 798.515 387.951 801.673C398.564 805.949 410.31 800.75 421.418 798.009C432.525 795.269 447.429 797.127 450.792 808.062C453.608 817.211 446.664 828.865 453.129 835.922C486.233 872.059 421.321 859.624 397.697 861.246C353.75 864.262 308.936 870.14 265.561 859.2V859.205Z" fill="white"/>
<g opacity="0.4">
<circle cx="619.846" cy="557.049" r="242.061" stroke="white" stroke-width="1.5"/>
<circle cx="619.846" cy="557.049" r="266.267" stroke="white" stroke-width="1.65"/>
<circle cx="619.847" cy="557.05" r="292.894" stroke="white" stroke-width="1.815"/>
<circle cx="619.847" cy="557.05" r="292.894" stroke="white" stroke-width="1.815"/>
<circle cx="619.846" cy="557.05" r="322.184" stroke="white" stroke-width="1.9965"/>
<circle cx="619.847" cy="557.05" r="354.402" stroke="white" stroke-width="2.19615"/>
<circle cx="619.846" cy="557.05" r="389.842" stroke="white" stroke-width="2.41577"/>
</g>
<defs>
<filter id="filter0_f_131_1985" x="0.519531" y="0.245361" width="1193.2" height="1043.4" filterUnits="userSpaceOnUse" color-interpolation-filters="sRGB">
<feFlood flood-opacity="0" result="BackgroundImageFix"/>
<feBlend mode="normal" in="SourceGraphic" in2="BackgroundImageFix" result="shape"/>
<feGaussianBlur stdDeviation="132" result="effect1_foregroundBlur_131_1985"/>
</filter>
<linearGradient id="paint0_linear_131_1985" x1="122.878" y1="1027.32" x2="-20.5217" y2="501.227" gradientUnits="userSpaceOnUse">
<stop stop-color="#A945F7"/>
<stop offset="0.487992" stop-color="#7848FF"/>
<stop offset="0.848604" stop-color="#3E7AFF"/>
</linearGradient>
</defs>
</svg>
