<svg width="1497" height="467" viewBox="0 0 1497 467" fill="none" xmlns="http://www.w3.org/2000/svg">
<g clip-path="url(#clip0_855_2082)">
<circle cx="1095.74" cy="428.273" r="568.943" transform="rotate(-150 1095.74 428.273)" stroke="#FFF5C8" stroke-width="3.85825"/>
<circle cx="1095.74" cy="428.265" r="519.696" transform="rotate(-150 1095.74 428.265)" fill="url(#paint0_linear_855_2082)" fill-opacity="0.7"/>
<circle cx="1094.38" cy="431.083" r="464.991" transform="rotate(135 1094.38 431.083)" fill="url(#paint1_linear_855_2082)" fill-opacity="0.7"/>
<circle cx="1094.1" cy="428.351" r="399.345" transform="rotate(60 1094.1 428.351)" fill="url(#paint2_linear_855_2082)" fill-opacity="0.7"/>
<circle cx="1091.06" cy="423.709" r="344.64" transform="rotate(15 1091.06 423.709)" fill="url(#paint3_linear_855_2082)" fill-opacity="0.7"/>
<circle cx="1092.92" cy="431.083" r="289.935" transform="rotate(-45 1092.92 431.083)" fill="url(#paint4_linear_855_2082)" fill-opacity="0.7"/>
<circle cx="1092.27" cy="431.074" r="244.244" transform="rotate(-95.2142 1092.27 431.074)" fill="url(#paint5_linear_855_2082)" fill-opacity="0.7"/>
<circle cx="1091.62" cy="431.082" r="198.557" transform="rotate(-51.2214 1091.62 431.082)" fill="url(#paint6_linear_855_2082)" fill-opacity="0.7"/>
<circle cx="1090.97" cy="431.075" r="152.87" transform="rotate(-12.1814 1090.97 431.075)" fill="url(#paint7_linear_855_2082)" fill-opacity="0.7"/>
<path d="M577.41 415.388C551.459 414.575 535.245 416.748 526.374 405.395C525.76 404.611 518.883 395.527 521.425 384.759C524.071 373.559 535.017 368.589 536.958 367.704C547.086 363.1 552.977 367.252 565.127 366.877C589.242 366.135 591.255 349.004 611.152 348.904C631.455 348.804 633.929 366.606 655.198 365.735C670.617 365.103 675.552 355.481 690.472 358.378C692.771 358.825 704.83 361.165 710.698 371.333C717.504 383.128 711.936 398.447 704.53 406.932C697.149 415.393 687.174 417.947 679.065 419.53C641.444 426.893 626.301 416.914 577.415 415.383L577.41 415.388Z" fill="#E4ECFE"/>
<path d="M101.641 303.498C127.593 302.685 143.807 304.858 152.678 293.506C153.292 292.721 160.169 283.637 157.627 272.87C154.981 261.669 144.035 256.699 142.094 255.815C131.966 251.211 126.074 255.363 113.924 254.987C89.8102 254.245 87.7971 237.114 67.8994 237.014C47.5971 236.914 45.1224 254.716 23.854 253.846C8.43459 253.213 3.4994 243.592 -11.4203 246.488C-13.719 246.935 -25.7785 249.275 -31.6465 259.443C-38.452 271.238 -32.8838 286.557 -25.4787 295.042C-18.0973 303.503 -8.12228 306.057 -0.0128021 307.641C37.6078 315.003 52.7512 305.025 101.637 303.493L101.641 303.498Z" fill="#E4ECFE"/>
<path d="M1277.81 113.826C1285.81 111.326 1295.33 105.19 1294.63 94.9892C1294 85.8663 1285.21 81.1643 1277.84 81.3517C1270.46 81.539 1262.99 84.5605 1255.82 82.4115C1246.44 79.6067 1240.25 68.9262 1234.49 59.3348C1228.38 49.1638 1221.63 39.1742 1212.75 32.8854C1203.87 26.5907 1192.41 24.5881 1183.45 30.6895C1176.58 35.3564 1171.83 44.1807 1164.57 47.8053C1154.76 52.7122 1143.89 46.7454 1133.61 43.601C1123.33 40.4566 1109.54 42.588 1106.43 55.1364C1103.83 65.6354 1110.25 79.0094 1104.27 87.1077C1073.64 128.577 1133.7 114.307 1155.56 116.169C1196.22 119.629 1237.68 126.375 1277.81 113.821V113.826Z" fill="white"/>
<path d="M780.696 449.238C786.149 452.997 792.875 454.369 799.396 455.659C804.187 456.603 808.978 457.553 813.773 458.498C824.551 460.626 835.939 462.726 846.335 459.201C853.876 456.644 860.292 451.284 868.015 449.326C875.732 447.367 883.874 449.009 891.83 448.587C894.103 448.464 896.406 448.165 898.474 447.22C902.884 445.203 905.62 440.101 904.833 435.357C904.047 430.613 899.804 426.642 894.976 426.126C888.588 425.446 880.866 429.803 876.409 425.223C874.855 423.628 874.297 421.359 873.215 419.418C871.046 415.524 866.866 413.149 862.666 411.565C849.429 406.563 838.394 410.099 825.137 411.941C816.142 413.19 807.929 411.166 799.006 410.433C787.656 409.507 776.082 411.137 772.054 423.306C769.027 432.448 772.707 443.725 780.696 449.232V449.238Z" fill="white"/>
<g clip-path="url(#clip1_855_2082)">
<path d="M982.999 146.284C974.797 151.512 965.037 154.273 955.306 154.155C952.206 154.111 949.092 153.786 945.991 154.052C942.891 154.318 939.732 155.233 937.463 157.345C935.193 159.457 934.036 162.942 935.282 165.762C937.032 169.75 942.699 171.33 943.559 175.612C944.182 178.684 941.883 181.608 939.287 183.395C936.691 185.181 933.665 186.363 931.47 188.622C928.86 191.325 927.836 195.474 928.919 199.078C930.002 202.681 933.117 205.59 936.795 206.446C939.005 206.949 941.734 206.963 942.921 208.883C943.752 210.227 943.455 211.94 943.247 213.505C942.817 216.798 942.98 220.284 944.508 223.237C946.036 226.19 949.136 228.479 952.473 228.361C953.779 228.317 955.054 227.918 956.36 227.948C957.665 227.977 959.104 228.583 959.489 229.823C959.756 230.68 959.46 231.595 959.371 232.481C958.896 236.838 963.257 240.234 967.484 241.489C975.924 244 985.343 241.578 992.463 236.409C999.568 231.241 1004.57 223.591 1007.89 215.469C1011.23 207.347 1013.02 198.708 1014.8 190.129" fill="#263238"/>
<path d="M1077.29 363.484C1076.45 361.121 1074.84 359.127 1073.12 357.296C1061.95 345.467 1045.05 339.812 1028.76 340.727C1012.47 341.643 996.913 348.702 984.23 358.921C977.482 364.355 968.374 374.869 966.001 383.183C975.909 385.561 990.712 382.253 1000.06 378.192C1009.4 374.131 1018.64 369.228 1028.79 368.194C1040.54 366.998 1052.08 371.163 1063.65 373.496C1065.97 373.969 1068.36 374.367 1070.71 374.057C1073.06 373.762 1075.41 372.669 1076.73 370.69C1078.12 368.608 1078.14 365.832 1077.31 363.469L1077.29 363.484Z" fill="#3268F3"/>
<g opacity="0.3">
<path d="M1077.01 363.594C1076.16 361.231 1074.56 359.238 1072.84 357.407C1061.67 345.578 1044.76 339.922 1028.48 340.838C1012.19 341.753 996.629 348.812 983.947 359.031C977.198 364.465 968.091 374.98 965.718 383.294C975.626 385.671 990.429 382.363 999.774 378.302C1009.12 374.241 1018.36 369.339 1028.51 368.305C1040.25 367.109 1051.79 371.273 1063.36 373.606C1065.69 374.079 1068.08 374.478 1070.42 374.167C1072.78 373.872 1075.12 372.779 1076.44 370.801C1077.84 368.718 1077.85 365.942 1077.02 363.579L1077.01 363.594Z" fill="black"/>
</g>
<path d="M1069.18 504.379L1097.46 486.126C1097.46 486.126 1125.59 508.617 1131.15 505.752L1097.58 449.873L1052.34 476.498L1069.18 504.364V504.379Z" fill="#FFBF5E"/>
<path d="M1084.66 470.296C1084.31 469.04 1085.08 467.564 1086.32 467.165C1087.57 466.766 1089.08 467.534 1089.45 468.789C1089.82 470.045 1088.95 471.846 1087.67 472.097C1086.38 472.363 1084.66 471.359 1084.6 470.059" fill="#E0E0E0"/>
<g opacity="0.6">
<path d="M1097.58 449.888L1093.13 452.753L1126.98 505.251C1126.98 505.251 1129.56 507.097 1131.15 505.767L1097.58 449.888Z" fill="white"/>
</g>
<path opacity="0.3" d="M1073.66 463.96L1086.53 493.185L1082.21 496.212L1067.37 467.741L1073.66 463.96Z" fill="black"/>
<path d="M1056.82 349.352C1055.66 349.352 1017.62 348.525 997.074 362.022L980.818 371.148L981.263 387.54C981.263 387.54 977.777 393.329 978.548 396.799C979.32 400.27 978.43 414.934 978.43 414.934C978.43 414.934 972.348 415.318 971.562 425.743C971.562 425.743 963.107 429.214 959.399 435.386C955.691 441.559 917.704 511.01 915.375 522.204C913.047 533.397 911.504 553.068 920.033 559.624C928.562 566.181 947.548 563.863 947.548 563.863C947.548 563.863 950.262 571.97 966.919 572.354C983.577 572.738 1009.16 553.452 1009.16 553.452L1085.89 501.367L1067.74 462.662L1040.94 478.994L1069.61 445.812C1069.61 445.812 1082.78 423.44 1078.91 399.9C1076.03 382.431 1056.82 349.352 1056.82 349.352Z" fill="#263238"/>
<path d="M1063.38 361.372C1063.38 361.372 1063.07 361.417 1062.47 361.417C1061.81 361.417 1060.94 361.417 1059.89 361.417C1057.65 361.402 1054.4 361.343 1050.4 361.387C1046.39 361.446 1041.63 361.579 1036.37 362.14C1031.12 362.702 1025.36 363.676 1019.61 365.625C1008.04 369.509 998.706 375.697 992.076 380.112C988.842 382.342 986.202 384.173 984.274 385.488C983.399 386.078 982.702 386.566 982.153 386.95C981.663 387.274 981.396 387.437 981.382 387.422C981.367 387.407 981.604 387.201 982.064 386.831C982.598 386.418 983.28 385.901 984.111 385.251C985.891 383.907 988.501 381.973 991.779 379.669C998.335 375.136 1007.67 368.83 1019.37 364.902C1025.2 362.923 1031.03 361.963 1036.31 361.432C1041.6 360.915 1046.39 360.826 1050.41 360.841C1054.43 360.856 1057.67 361.003 1059.92 361.107C1060.97 361.166 1061.83 361.225 1062.5 361.254C1063.1 361.299 1063.41 361.328 1063.39 361.358L1063.38 361.372Z" fill="#455A64"/>
<path d="M985.09 373.393C985.193 373.481 984.126 374.028 983.873 375.608C983.755 376.361 983.933 377.336 984.689 377.985C985.401 378.65 986.617 379.004 987.656 378.591C988.694 378.177 989.332 377.085 989.376 376.11C989.465 375.121 988.916 374.294 988.308 373.821C987.033 372.846 985.876 373.186 985.891 373.038C985.891 372.994 986.113 372.861 986.617 372.817C987.107 372.773 987.863 372.876 988.635 373.378C989.391 373.851 990.148 374.87 990.088 376.14C990.059 377.35 989.317 378.724 987.938 379.3C986.543 379.831 985.06 379.344 984.2 378.488C983.28 377.616 983.132 376.346 983.339 375.49C983.547 374.604 984.022 374.013 984.407 373.703C984.793 373.393 985.075 373.334 985.09 373.363V373.393Z" fill="#455A64"/>
<path d="M998.737 375.402C998.737 375.402 998.129 375.077 997.372 374.309C996.645 373.541 995.592 372.36 995.177 370.647C994.791 368.934 995.222 367.398 995.533 366.394C995.874 365.375 996.186 364.784 996.275 364.814C996.378 364.843 996.26 365.493 996.067 366.527C995.889 367.546 995.592 368.993 995.933 370.469C996.289 371.946 997.194 373.113 997.802 373.955C998.44 374.796 998.841 375.328 998.752 375.402H998.737Z" fill="#455A64"/>
<path d="M1001.96 373.437C1001.96 373.437 1001.36 373.172 1000.66 372.448C999.982 371.724 999.167 370.543 998.722 369.051C997.876 366.039 998.499 363.573 998.647 363.602C998.914 363.602 998.692 366.068 999.463 368.83C1000.28 371.606 1002.15 373.26 1001.96 373.437Z" fill="#455A64"/>
<path d="M1043.03 361.373C1042.91 361.373 1042.86 360.678 1042.76 359.6C1042.64 358.522 1042.45 357.031 1041.82 355.539C1041.22 354.033 1040.24 352.896 1039.51 352.099C1038.77 351.301 1038.28 350.814 1038.35 350.725C1038.41 350.651 1039.02 350.991 1039.88 351.715C1040.73 352.438 1041.85 353.62 1042.52 355.259C1043.2 356.883 1043.31 358.493 1043.28 359.6C1043.25 360.723 1043.1 361.402 1043 361.402L1043.03 361.373Z" fill="#455A64"/>
<path d="M1048.01 361.269C1047.91 361.269 1047.88 360.575 1047.89 359.497C1047.89 358.419 1048 356.913 1047.55 355.421C1047.08 353.945 1046.17 352.719 1045.62 351.789C1045.06 350.873 1044.73 350.268 1044.82 350.208C1044.91 350.149 1045.39 350.637 1046.07 351.478C1046.72 352.335 1047.73 353.516 1048.29 355.2C1048.8 356.913 1048.56 358.463 1048.44 359.541C1048.29 360.619 1048.12 361.284 1048.01 361.269Z" fill="#455A64"/>
<path d="M982.42 529.071C982.42 529.071 982.583 528.436 983.117 527.343C983.637 526.235 984.438 524.64 985.491 522.573C987.597 518.453 990.712 512.531 994.598 505.236C1002.37 490.646 1013.23 470.547 1025.3 448.411C1028.33 442.873 1031.28 437.469 1034.13 432.256C1036.95 427.058 1038.99 421.682 1040.37 416.425C1043.18 405.896 1043.16 395.898 1041.91 387.791C1040.68 379.639 1038.31 373.334 1036.44 369.125C1035.49 367.028 1034.68 365.418 1034.11 364.34C1033.85 363.838 1033.64 363.425 1033.46 363.115C1033.31 362.834 1033.25 362.687 1033.27 362.687C1033.27 362.687 1033.37 362.819 1033.53 363.07C1033.71 363.381 1033.95 363.765 1034.25 364.252C1034.85 365.3 1035.71 366.88 1036.71 368.977C1038.67 373.157 1041.13 379.477 1042.45 387.673C1043.77 395.839 1043.84 405.925 1041.05 416.573C1039.67 421.889 1037.63 427.309 1034.78 432.581C1031.93 437.808 1028.98 443.213 1025.95 448.751C1013.9 470.887 1002.98 490.912 995.043 505.472C991.127 512.708 987.953 518.586 985.728 522.691C984.66 524.699 983.829 526.265 983.236 527.387C982.969 527.904 982.761 528.303 982.598 528.613C982.48 528.893 982.405 529.041 982.391 529.041L982.42 529.071Z" fill="#455A64"/>
<path d="M1080 505.34C1080 505.34 1079.71 504.808 1079.29 503.804C1078.79 502.667 1078.17 501.264 1077.44 499.61C1075.84 496.081 1073.55 491.237 1071 485.906C1068.48 480.649 1066.21 475.894 1064.44 472.231C1063.67 470.592 1063.04 469.204 1062.5 468.067C1062.06 467.078 1061.83 466.516 1061.88 466.502C1061.92 466.472 1062.23 466.989 1062.77 467.934C1063.3 468.879 1064.03 470.267 1064.93 471.995C1066.73 475.436 1069.13 480.235 1071.7 485.581C1074.26 490.927 1076.47 495.815 1077.94 499.403C1078.68 501.205 1079.23 502.682 1079.57 503.701C1079.9 504.749 1080.05 505.325 1080 505.34Z" fill="#455A64"/>
<path d="M983.605 430.602C983.605 430.602 983.546 430.72 983.398 430.912C983.22 431.149 983.012 431.429 982.745 431.784C982.167 432.551 981.336 433.674 980.342 435.195C978.325 438.207 975.744 442.8 973.311 448.81C970.864 454.806 968.669 462.219 966.533 470.518C964.323 478.803 962.142 488.033 958.36 497.247C954.518 506.433 949.801 514.643 946.761 522.647C943.69 530.622 942.088 538.271 942.133 544.724C942.133 547.944 942.533 550.853 943.127 553.349C943.705 555.844 944.521 557.912 945.248 559.566C946.004 561.205 946.657 562.46 947.161 563.272C947.384 563.656 947.547 563.966 947.695 564.217C947.814 564.439 947.873 564.542 947.858 564.557C947.858 564.557 947.769 564.468 947.636 564.262C947.473 564.025 947.28 563.715 947.028 563.346C946.479 562.563 945.782 561.323 944.981 559.684C944.224 558.03 943.349 555.962 942.726 553.437C942.088 550.927 941.658 547.988 941.614 544.71C941.495 538.168 943.053 530.43 946.123 522.381C949.164 514.304 953.866 506.049 957.678 496.937C961.43 487.796 963.64 478.596 965.88 470.326C968.075 462.027 970.315 454.599 972.852 448.589C975.358 442.579 978.028 437.986 980.135 435.018C981.173 433.526 982.048 432.404 982.671 431.68C982.953 431.341 983.19 431.075 983.383 430.853C983.546 430.676 983.635 430.587 983.65 430.587L983.605 430.602Z" fill="#455A64"/>
<path d="M986.1 383.996C986.1 383.996 985.818 384.646 985.329 385.798C984.839 386.95 984.201 388.663 983.875 390.878C983.549 393.078 983.608 395.766 984.157 398.675C984.602 401.614 985.833 404.641 986.664 408.037C987.094 409.721 987.257 411.493 987.109 413.147C986.975 414.801 986.693 416.366 986.352 417.828C985.67 420.767 984.81 423.322 984.053 425.463C983.297 427.604 982.629 429.302 982.155 430.484C981.68 431.65 981.398 432.3 981.339 432.285C981.294 432.271 981.472 431.591 981.858 430.38C982.303 429.037 982.852 427.324 983.519 425.3C984.201 423.144 985.002 420.59 985.64 417.681C986.263 414.786 986.797 411.522 985.907 408.229C985.106 404.936 983.86 401.806 983.445 398.808C982.926 395.84 982.926 393.063 983.326 390.804C983.742 388.544 984.468 386.817 985.047 385.694C985.344 385.133 985.596 384.705 985.774 384.424C985.952 384.144 986.056 383.996 986.085 384.011L986.1 383.996Z" fill="#455A64"/>
<path d="M987.91 428.416C987.762 428.313 990.164 426.481 991.648 422.14C992.389 419.999 992.849 417.311 992.82 414.313C992.79 411.315 992.271 408.022 991.588 404.596C990.921 401.17 990.194 397.892 989.957 394.82C989.705 391.763 989.808 389.002 990.12 386.713C990.417 384.409 990.936 382.593 991.425 381.397C991.677 380.791 991.885 380.333 992.063 380.053C992.226 379.757 992.33 379.61 992.345 379.625C992.404 379.654 992.093 380.289 991.707 381.515C991.321 382.726 990.891 384.527 990.669 386.787C990.431 389.046 990.387 391.778 990.669 394.776C990.936 397.774 991.692 401.022 992.36 404.463C993.042 407.904 993.546 411.242 993.546 414.313C993.546 417.385 993.012 420.146 992.182 422.332C991.366 424.517 990.283 426.097 989.423 427.072C988.978 427.545 988.622 427.914 988.355 428.121C988.088 428.342 987.954 428.445 987.925 428.431L987.91 428.416Z" fill="#455A64"/>
<path d="M1025.54 416.78C1025.54 416.78 1024.9 416.942 1023.74 417.105C1022.59 417.252 1020.91 417.518 1018.86 417.872C1014.75 418.581 1009.12 419.851 1003.11 421.904C997.104 423.971 991.882 426.437 988.204 428.402C986.365 429.376 984.896 430.203 983.888 430.794C982.879 431.37 982.3 431.68 982.271 431.636C982.241 431.591 982.76 431.207 983.724 430.543C984.688 429.878 986.127 428.977 987.937 427.929C991.556 425.832 996.792 423.277 1002.86 421.18C1008.93 419.113 1014.62 417.917 1018.77 417.341C1020.85 417.045 1022.54 416.883 1023.71 416.809C1024.89 416.735 1025.54 416.721 1025.54 416.78Z" fill="#455A64"/>
<path d="M1027.94 400.683C1027.94 400.831 1025.75 400.787 1022.29 401.333C1020.56 401.584 1018.52 402.057 1016.31 402.721C1014.12 403.43 1011.76 404.36 1009.39 405.586C1007.03 406.826 1004.92 408.244 1003.08 409.632C1001.27 411.065 999.731 412.453 998.53 413.738C996.127 416.263 994.91 418.079 994.792 417.991C994.747 417.961 995.029 417.489 995.563 416.662C996.082 415.82 996.957 414.683 998.129 413.354C999.286 412.01 1000.81 410.548 1002.64 409.071C1004.48 407.624 1006.63 406.162 1009.03 404.892C1011.45 403.651 1013.87 402.721 1016.11 402.042C1018.36 401.392 1020.45 400.979 1022.22 400.787C1023.98 400.58 1025.42 400.521 1026.4 400.565C1027.39 400.595 1027.93 400.639 1027.93 400.683H1027.94Z" fill="#455A64"/>
<path d="M1031.27 434.456C1031.27 434.456 1030.69 434.737 1029.59 435.091C1028.51 435.446 1026.93 435.977 1025.01 436.657C1021.15 438.015 1015.88 440.083 1010.28 442.829C1004.67 445.576 999.82 448.485 996.379 450.7C994.659 451.808 993.279 452.724 992.33 453.373C991.381 454.008 990.832 454.348 990.802 454.304C990.772 454.259 991.247 453.846 992.152 453.137C993.042 452.413 994.377 451.424 996.068 450.257C999.435 447.909 1004.29 444.926 1009.92 442.15C1015.56 439.389 1020.9 437.38 1024.81 436.155C1026.77 435.534 1028.37 435.077 1029.5 434.811C1030.61 434.53 1031.24 434.412 1031.25 434.456H1031.27Z" fill="#455A64"/>
<path d="M1078.02 395.825C1078.02 395.825 1077.51 395.677 1076.59 395.323C1075.67 394.983 1074.32 394.466 1072.59 393.89C1069.12 392.738 1064.03 391.395 1057.77 390.656L1058.14 390.317C1058.31 396.667 1058.28 404.227 1057.7 412.261C1057.09 420.959 1055.93 428.992 1054.57 435.608V435.446C1056.3 440.998 1058.08 445.502 1059.49 448.559C1060.19 450.095 1060.83 451.247 1061.27 452.044C1061.73 452.812 1061.98 453.226 1061.95 453.255C1061.92 453.27 1061.63 452.901 1061.11 452.148C1060.62 451.38 1059.91 450.257 1059.17 448.722C1057.64 445.694 1055.77 441.205 1053.96 435.638L1053.93 435.564V435.475C1055.22 428.874 1056.33 420.87 1056.94 412.202C1057.5 404.183 1057.59 396.652 1057.49 390.317V389.933L1057.86 389.977C1064.15 390.789 1069.27 392.236 1072.72 393.506C1074.46 394.141 1075.79 394.702 1076.68 395.116C1077.57 395.529 1078.05 395.766 1078.03 395.795L1078.02 395.825Z" fill="#455A64"/>
<path d="M1079.23 402.218C1079.19 402.322 1078.02 401.938 1076.12 401.377C1074.22 400.801 1071.57 400.077 1068.61 399.383C1062.7 398.01 1057.85 397.124 1057.88 396.887C1057.89 396.784 1059.12 396.887 1061.11 397.168C1063.08 397.449 1065.81 397.936 1068.79 398.63C1074.77 399.989 1079.34 402.012 1079.23 402.218Z" fill="#455A64"/>
<path d="M1072.1 379.492C1072.05 379.61 1070.29 379.078 1067.4 378.399C1064.5 377.72 1060.47 376.952 1055.95 376.583C1051.42 376.213 1047.31 376.287 1044.35 376.42C1041.38 376.568 1039.54 376.716 1039.53 376.597C1039.53 376.538 1039.97 376.45 1040.8 376.302C1041.63 376.154 1042.83 376.007 1044.32 375.874C1047.3 375.593 1051.45 375.431 1056.02 375.8C1060.59 376.184 1064.65 377.04 1067.54 377.853C1068.98 378.266 1070.14 378.635 1070.93 378.931C1071.71 379.226 1072.13 379.403 1072.11 379.462L1072.1 379.492Z" fill="#455A64"/>
<path d="M1041.91 386.152C1041.91 386.152 1041.23 386.432 1039.96 386.772C1038.68 387.097 1036.81 387.525 1034.47 387.924C1029.81 388.707 1023.24 389.445 1015.99 388.84C1012.41 388.485 1008.84 388.101 1006.05 386.359C1004.68 385.487 1003.6 384.321 1002.96 383.021C1002.3 381.722 1002.24 380.274 1002.43 379.108C1002.82 376.73 1003.54 374.943 1004.09 373.747C1004.65 372.536 1005.1 371.946 1005.14 371.975C1005.19 372.005 1004.83 372.64 1004.37 373.865C1003.93 375.091 1003.28 376.893 1002.98 379.182C1002.83 380.319 1002.92 381.574 1003.54 382.755C1004.15 383.922 1005.16 385 1006.43 385.783C1009.03 387.363 1012.52 387.762 1016.06 388.101C1023.21 388.692 1029.74 388.057 1034.38 387.407C1036.71 387.082 1038.59 386.728 1039.88 386.492C1041.17 386.24 1041.9 386.122 1041.91 386.167V386.152Z" fill="#455A64"/>
<path d="M1038.13 121.475C1031.04 106.176 1013.5 109.189 1005.1 113.25C996.706 117.311 990.358 123.705 986.546 132.817C984.069 138.724 982.111 145.458 977.142 149.031C974.961 150.597 972.395 151.379 970.081 152.694C967.768 154.008 965.557 156.105 965.157 158.911C964.415 163.991 969.547 167.52 973.879 169.573C971.298 171.315 970.63 175.258 971.535 178.418C972.44 181.579 974.546 184.119 976.608 186.541C982.942 193.983 994.244 203.139 1002.34 208.16C1010.44 213.181 1015.68 213.772 1024.38 210.168C1027.91 208.706 1031.21 206.299 1034.97 205.871C1039.35 205.369 1043.55 207.614 1047.86 208.514C1052.18 209.415 1057.65 208.175 1059.06 203.641C1059.6 201.899 1059.42 199.994 1059.66 198.177C1059.89 196.361 1060.78 194.382 1062.43 193.969C1063.77 193.629 1065.1 194.441 1066.42 194.869C1069.55 195.903 1074.27 219.029 1077.26 217.626C1077.26 217.626 1081.62 178.433 1073.21 155.499C1070.53 148.19 1064.82 132.581 1060.24 126.511C1053.95 118.182 1038.88 120.028 1038.12 121.505" fill="#263238"/>
<path d="M1029.15 124.016C1017.99 120.132 1002.92 128.668 999.496 139.935C995.699 152.458 991.546 167.89 990.834 177.725C989.38 197.498 1003.49 203.346 1003.49 203.346L997.746 234.254L1046.16 218.675L1063.05 145.857L1064.63 139.728L1029.16 124.031L1029.15 124.016Z" fill="#FFBE9D"/>
<path d="M999.495 155.175C999.673 155.588 1001.96 154.983 1004.48 155.972C1007.02 156.932 1008.35 158.955 1008.75 158.749C1008.94 158.66 1008.85 157.995 1008.28 157.095C1007.71 156.209 1006.59 155.101 1005 154.496C1003.43 153.89 1001.87 153.949 1000.87 154.245C999.866 154.54 999.376 154.983 999.465 155.175H999.495Z" fill="#263238"/>
<path d="M1024.55 161.732C1024.85 162.086 1026.85 160.802 1029.55 160.994C1032.25 161.141 1034.15 162.662 1034.46 162.352C1034.61 162.219 1034.34 161.599 1033.51 160.92C1032.69 160.241 1031.28 159.532 1029.61 159.428C1027.92 159.325 1026.46 159.842 1025.6 160.418C1024.73 160.994 1024.4 161.57 1024.55 161.732Z" fill="#263238"/>
<path d="M1013.3 172.793C1013.35 172.645 1011.78 171.981 1009.2 171.021C1008.54 170.799 1007.94 170.504 1007.92 170.031C1007.88 169.515 1008.34 168.85 1008.84 168.141C1009.86 166.664 1010.92 165.114 1012.04 163.489C1016.54 156.859 1019.95 151.336 1019.68 151.159C1019.42 150.981 1015.56 156.209 1011.07 162.854C1009.98 164.494 1008.93 166.059 1007.94 167.55C1007.51 168.259 1006.85 169.012 1006.96 170.105C1007.02 170.652 1007.43 171.124 1007.83 171.346C1008.23 171.582 1008.62 171.671 1008.94 171.774C1011.58 172.542 1013.25 172.941 1013.29 172.793H1013.3Z" fill="#263238"/>
<path d="M1003.47 203.391C1003.47 203.391 1016.82 207.349 1031.39 202.682C1031.39 202.682 1021.98 214.585 1002.58 208.205L1003.47 203.376V203.391Z" fill="#EB996E"/>
<path d="M1011.85 181.638C1011.6 181.316 1011.97 182.033 1011.85 181.638V181.638Z" fill="#EB996E"/>
<path d="M1020.48 180.353C1019.95 179.128 1018.81 178.212 1017.56 177.784C1015.77 177.149 1013.72 177.489 1012.34 178.64C1011.41 179.586 1011.76 181.254 1011.88 181.653C1012.82 182.834 1012.91 183.853 1014.21 184.577C1015.53 185.301 1018.85 184.843 1019.91 183.927C1020.84 183.1 1021.03 181.594 1020.5 180.368L1020.48 180.353Z" fill="#EB996E"/>
<path d="M1020.65 176.44C1020.22 176.307 1019.55 179.172 1016.61 180.619C1013.67 182.081 1010.69 181.047 1010.59 181.431C1010.5 181.594 1011.14 182.14 1012.43 182.48C1013.69 182.82 1015.63 182.849 1017.43 181.963C1019.22 181.077 1020.25 179.556 1020.63 178.419C1021.02 177.252 1020.87 176.47 1020.68 176.44H1020.65Z" fill="#263238"/>
<path d="M1029.99 147.821C1029.84 148.574 1032.07 149.356 1034.29 150.966C1036.56 152.531 1038.06 154.377 1038.7 153.964C1039 153.757 1038.98 152.974 1038.52 151.926C1038.08 150.892 1037.16 149.637 1035.81 148.677C1034.46 147.732 1032.99 147.289 1031.89 147.245C1030.78 147.186 1030.07 147.466 1029.99 147.821Z" fill="#263238"/>
<path d="M1001.11 145.044C1001.71 145.605 1003.73 144.779 1006.23 144.498C1008.72 144.158 1010.89 144.468 1011.32 143.774C1011.5 143.449 1011.11 142.859 1010.13 142.371C1009.17 141.884 1007.6 141.559 1005.88 141.766C1004.16 141.973 1002.72 142.682 1001.92 143.39C1001.08 144.099 1000.86 144.764 1001.13 145.03L1001.11 145.044Z" fill="#263238"/>
<path d="M1067.33 139.669C1066.68 138.119 1065.1 137.189 1063.62 136.391C1053.99 131.134 1044.01 126.512 1033.78 122.569L1029.56 124.946C1028.32 133.068 1032.59 141.752 1039.8 145.739C1042.68 147.334 1046.41 148.84 1046.78 152.089C1047.17 155.471 1043.61 157.774 1041.61 160.521C1039.13 163.888 1039 168.791 1041.28 172.291C1042.57 174.284 1044.53 175.79 1045.72 177.858C1047.29 180.59 1047.3 184.045 1046.12 186.955C1044.92 189.864 1042.91 193.792 1040.23 195.446C1047.44 197.336 1055.88 193.689 1059.64 187.294C1061.88 183.484 1062.06 178.862 1062.37 174.461C1063.06 164.42 1064.66 154.437 1067.16 144.69C1067.59 143.036 1068.02 141.235 1067.36 139.669H1067.33Z" fill="#263238"/>
<path d="M1034.44 123.026C1031.67 126.29 1028.84 129.613 1025.19 131.872C1021.54 134.131 1016.88 135.195 1012.89 133.6C1013.88 132.507 1014.89 131.399 1015.89 130.307C1008.81 135.136 1000.71 138.458 992.288 140.024C997.598 133.6 1003.07 127.028 1010.32 122.879C1017.58 118.729 1027.09 117.459 1034.16 121.875" fill="#263238"/>
<path d="M1068.3 160.373L1045.7 177.857C1048.29 180.663 1047.27 187.855 1044.73 190.705C1042.2 193.555 1038.8 195.992 1037.8 199.669C1036.71 203.7 1038.86 207.879 1038.92 212.058C1039.01 217.98 1035 223.045 1031.93 228.096C1028.85 233.161 1026.64 239.895 1030.06 244.724C1033.93 250.158 1042.7 249.376 1048 245.315C1053.29 241.239 1056.32 234.992 1060.25 229.602C1064.18 224.212 1070.32 220.107 1076.98 220.786C1079.14 200.643 1075.98 179.112 1068.3 160.358V160.373Z" fill="#263238"/>
<path d="M1072.08 209.105C1071.95 208.854 1073.29 207.894 1075.57 206.077C1077.82 204.246 1081.12 201.544 1084.11 197.438C1085.6 195.386 1086.96 192.979 1087.94 190.232C1088.9 187.485 1089.48 184.384 1089.28 181.194C1089.1 178.005 1088 174.771 1086.16 171.773C1084.29 168.79 1081.68 166.073 1078.66 163.71C1072.56 158.999 1065.36 156.297 1058.96 153.52C1052.5 150.803 1046.63 147.879 1042.37 144.453C1038.04 141.116 1035.31 137.483 1033.93 134.781C1032.55 132.049 1032.33 130.365 1032.54 130.291C1032.82 130.188 1033.53 131.665 1035.21 133.998C1036.9 136.316 1039.72 139.403 1043.99 142.268C1048.2 145.221 1053.82 147.732 1060.32 150.257C1063.57 151.541 1067.01 152.871 1070.54 154.51C1074.06 156.149 1077.69 158.083 1081.03 160.697C1084.37 163.282 1087.27 166.338 1089.39 169.838C1091.49 173.323 1092.72 177.266 1092.84 181.047C1092.97 184.827 1092.17 188.357 1090.94 191.384C1089.71 194.426 1088.04 197.025 1086.28 199.137C1082.73 203.375 1079.01 205.841 1076.43 207.347C1073.8 208.839 1072.22 209.356 1072.1 209.149L1072.08 209.105Z" fill="#263238"/>
<path d="M1072.5 156.031C1072.5 156.031 1071.77 155.853 1070.53 155.396C1069.28 154.938 1067.49 154.244 1065.29 153.328C1060.93 151.482 1054.84 148.765 1049.14 144.172C1043.43 139.565 1039.8 133.732 1038.4 129.169C1037.69 126.895 1037.41 124.96 1037.35 123.631C1037.29 122.966 1037.35 122.45 1037.35 122.095C1037.35 121.741 1037.38 121.564 1037.41 121.564C1037.58 121.549 1037.36 124.547 1038.92 128.992C1040.4 133.422 1044.02 139.063 1049.63 143.567C1055.24 148.071 1061.23 150.847 1065.52 152.826C1067.58 153.742 1069.3 154.51 1070.65 155.115C1071.86 155.661 1072.52 155.986 1072.5 156.031Z" fill="#455A64"/>
<path d="M1073.21 178.448C1073.12 178.419 1073.58 177.562 1073.82 175.894C1074.06 174.24 1073.9 171.729 1072.62 168.997C1071.37 166.265 1069.06 163.4 1065.77 161.141C1062.52 158.793 1058.48 156.932 1054.45 154.54C1050.42 152.133 1046.97 149.165 1044.35 146.049C1041.68 142.977 1039.8 139.787 1038.46 137.041C1037.16 134.264 1036.38 131.887 1035.98 130.233C1035.75 129.406 1035.66 128.756 1035.57 128.313C1035.49 127.87 1035.46 127.634 1035.48 127.634C1035.54 127.634 1035.76 128.535 1036.27 130.159C1036.75 131.783 1037.59 134.102 1038.94 136.819C1040.31 139.507 1042.21 142.608 1044.87 145.606C1047.48 148.633 1050.86 151.527 1054.84 153.905C1058.81 156.268 1062.88 158.173 1066.17 160.595C1069.52 162.943 1071.89 165.97 1073.11 168.805C1074.37 171.655 1074.45 174.284 1074.1 175.967C1073.94 176.809 1073.72 177.459 1073.53 177.858C1073.33 178.271 1073.23 178.478 1073.2 178.463L1073.21 178.448Z" fill="#455A64"/>
<path d="M948.231 163.43C948.231 163.43 948.261 163.341 948.365 163.193C948.469 163.046 948.602 162.809 948.854 162.544C949.314 161.997 950.1 161.229 951.376 160.683C952.652 160.136 954.343 159.944 956.271 159.841C958.184 159.723 960.38 159.59 962.797 159.59C965.2 159.546 967.855 159.531 970.584 158.881C973.299 158.246 975.998 156.799 978.401 154.776C980.789 152.738 982.911 150.139 984.779 147.259C986.648 144.365 988.221 141.146 989.867 137.867C991.514 134.589 993.19 131.37 995.192 128.505C997.18 125.625 999.553 123.115 1002.19 121.254C1007.5 117.488 1013.45 116.159 1018.29 116.012C1023.18 115.879 1027.07 116.971 1029.57 117.99C1030.18 118.256 1030.73 118.507 1031.22 118.714C1031.67 118.965 1032.04 119.172 1032.38 119.364C1033 119.718 1033.31 119.91 1033.3 119.94C1033.3 119.969 1032.94 119.807 1032.3 119.497C1031.96 119.334 1031.58 119.142 1031.13 118.921C1030.64 118.729 1030.08 118.507 1029.47 118.256C1026.96 117.326 1023.12 116.336 1018.32 116.543C1013.57 116.75 1007.77 118.108 1002.62 121.815C1000.06 123.646 997.758 126.083 995.83 128.918C993.872 131.754 992.226 134.929 990.564 138.207C988.918 141.485 987.316 144.734 985.417 147.658C983.519 150.582 981.338 153.225 978.861 155.322C976.369 157.39 973.566 158.866 970.733 159.501C967.9 160.151 965.215 160.136 962.797 160.136C960.38 160.107 958.214 160.21 956.286 160.284C954.372 160.343 952.726 160.491 951.495 160.978C950.249 161.451 949.463 162.16 948.973 162.662C948.484 163.164 948.261 163.474 948.231 163.444V163.43Z" fill="#455A64"/>
<path d="M939.139 143.553C930.225 121.181 918.433 99.2511 916.742 82.564L899.017 83.2876C899.402 89.7409 901.716 143.45 914.28 164.685C926.843 185.921 968.79 235.584 968.79 235.584L983.549 197.794C983.549 197.794 948.069 165.941 939.139 143.568V143.553Z" fill="#FFBE9D"/>
<path d="M909.608 47.8452H901.851C901.851 47.8452 902.607 52.3936 906.122 52.6446C909.638 52.8957 908.956 52.113 908.956 52.113L908.169 52.8218L903.334 53.7817C903.334 53.7817 903.586 57.5326 906.775 58.1233L911.462 53.7817L909.623 47.86L909.608 47.8452Z" fill="#FFBE9D"/>
<path d="M930.834 47.1661C930.122 52.9697 930.048 52.6153 930.048 52.6153L922.958 58.4336L921.163 49.8538C920.926 48.6872 919.917 47.8306 918.73 47.7568L915.497 47.5501C915.497 47.5501 916.758 43.0903 912.708 43.489C912.708 43.489 910.483 42.8836 908.689 50.3116C906.731 58.4189 898.276 77.4688 899.018 83.8483L916.995 84.5571C916.802 78.6206 921.712 72.3445 924.115 69.6273C924.842 68.8151 925.376 67.8404 925.613 66.7772C925.865 65.6992 926.414 64.2077 927.63 62.8491C929.84 60.3977 934.527 55.9822 934.527 55.9822V42.4996C934.527 42.4996 931.516 41.5397 930.834 47.1661ZM916.387 60.1909L912.693 61.8597L913.316 58.1087L916.387 57.8134V60.2057V60.1909Z" fill="#FFBE9D"/>
<path d="M912.547 62.2432C912.547 62.2432 912.547 61.6672 912.725 60.663C912.888 59.6589 913.155 58.1969 913.496 56.3953C913.867 54.5346 914.283 52.4228 914.742 50.0896C914.95 48.9082 915.321 47.653 915.351 46.4273C915.38 45.2311 914.906 43.843 913.615 43.7692C912.399 43.5477 911.375 44.5666 910.752 45.6151C910.411 46.1319 910.248 46.7226 910.04 47.3281C909.848 47.9188 909.655 48.5095 909.462 49.0854C908.75 51.3448 908.097 53.4123 907.534 55.2139C906.955 56.9564 906.421 58.3446 906.021 59.2897C905.62 60.2348 905.338 60.7369 905.294 60.7073C905.235 60.6778 905.427 60.1462 905.739 59.1863C906.065 58.2117 906.51 56.8088 907.015 55.0662C907.534 53.2498 908.127 51.1676 908.78 48.8934C908.958 48.3175 909.15 47.7268 909.343 47.1214C909.536 46.5454 909.729 45.8661 910.1 45.2607C910.456 44.67 910.886 44.094 911.494 43.6215C912.087 43.1637 912.933 42.8831 913.719 43.0308C914.119 43.0899 914.475 43.1932 914.846 43.4295C915.202 43.6658 915.454 43.9907 915.647 44.3303C916.003 45.0096 916.122 45.7628 916.092 46.4568C916.033 47.8597 915.647 49.0707 915.425 50.252C914.906 52.5558 914.431 54.6675 914.016 56.5134C913.6 58.3003 913.259 59.7327 913.007 60.7221C912.755 61.7115 912.592 62.2579 912.532 62.2432H912.547Z" fill="#EB996E"/>
<path d="M916.209 60.2351C915.986 60.2056 916.149 58.2563 916.001 55.8935C915.957 55.3028 915.912 54.7416 915.853 54.2248C915.808 53.6931 915.749 53.3387 915.512 53.1467C915.007 52.7776 914.399 52.7628 914.429 52.6299C914.429 52.5708 914.547 52.5265 914.785 52.497C915.007 52.4822 915.378 52.4379 915.823 52.689C916.313 52.9548 916.476 53.6193 916.55 54.1066C916.639 54.6383 916.713 55.2142 916.758 55.8344C916.921 58.3006 916.402 60.2646 916.194 60.2203L916.209 60.2351Z" fill="#EB996E"/>
<path d="M925.017 56.9277C925.077 57.0163 924.528 57.5774 923.564 58.4192C922.585 59.2461 921.176 60.3685 919.336 61.1954C917.497 62.0372 915.673 62.2587 914.397 62.3621C913.107 62.4507 912.32 62.4064 912.306 62.303C912.306 62.1996 913.077 62.0372 914.323 61.8157C915.569 61.5794 917.289 61.284 919.01 60.4866C920.731 59.7039 922.169 58.685 923.223 57.9762C924.276 57.2526 924.943 56.8243 925.017 56.9129V56.9277Z" fill="#EB996E"/>
<path d="M1065.99 224.655C1065.99 224.655 1085.94 224.064 1097.91 220.535C1109.88 217.005 1155.82 206.107 1155.82 206.107L1229.43 193.879L1230.89 212.855C1230.89 212.855 1162.46 232.777 1149.17 237.31C1135.88 241.844 1075.13 262.592 1063.66 259.963L1056.54 245.388L1065.99 224.669V224.655Z" fill="#FFBE9D"/>
<path d="M1264.81 171.596C1263.61 171.33 1257.65 174.032 1257.65 174.032C1259.66 171.522 1257.76 169.129 1257.76 169.129L1249.58 173.131C1249.58 173.131 1245.44 177.296 1242.74 179.304C1240.04 181.312 1232.46 190.04 1232.3 190.542L1227.42 195.076L1230.44 213.018C1230.44 213.018 1234.31 213.358 1236.85 212.176C1239.37 210.995 1243.08 206.299 1243.08 206.299L1250.07 205.708C1250.88 205.634 1251.67 205.369 1252.29 204.837C1254.4 203.035 1254.03 200.097 1254.03 200.097C1258.4 197.586 1255.88 194.396 1255.88 194.396C1255.88 194.396 1258.42 194.086 1259.47 192.418C1260.33 191.074 1260.09 190.025 1259.25 188.519C1258.4 187.013 1252.01 187.515 1252.01 187.515L1251.67 185.669C1251.67 185.669 1261.46 177.931 1263.64 176.247C1265.83 174.564 1265.94 171.832 1264.81 171.581V171.596Z" fill="#FFBE9D"/>
<path d="M1257.76 173.855C1257.85 173.899 1256.95 175.524 1254.75 177.429C1253.7 178.403 1252.35 179.481 1251.16 180.914C1249.96 182.317 1249.17 184.222 1248.55 186.304C1247.93 188.386 1247.29 190.439 1246.34 192.137C1245.44 193.85 1244.35 195.223 1243.37 196.301C1242.38 197.365 1241.46 198.118 1240.81 198.59C1240.16 199.063 1239.74 199.27 1239.73 199.225C1239.64 199.122 1241.12 198.103 1242.97 195.932C1243.88 194.839 1244.89 193.466 1245.73 191.812C1246.61 190.158 1247.2 188.194 1247.84 186.082C1248.46 183.985 1249.32 181.948 1250.64 180.471C1251.93 178.994 1253.31 177.96 1254.41 177.03C1256.66 175.258 1257.69 173.811 1257.78 173.87L1257.76 173.855Z" fill="#EB996E"/>
<path d="M1254.16 200.023C1254.19 200.096 1253.02 200.82 1250.88 201.558C1249.81 201.913 1248.51 202.252 1246.99 202.356C1246.24 202.415 1245.45 202.4 1244.64 202.326C1243.82 202.238 1242.92 202.031 1242.14 201.47C1241.37 200.909 1240.84 200.008 1240.9 199.048C1241.03 198.014 1241.67 197.438 1242.22 196.892C1242.77 196.375 1243.49 195.947 1244.15 195.814C1244.78 195.637 1245.38 195.504 1245.93 195.4C1248.11 194.943 1249.5 194.869 1249.52 194.987C1249.52 195.061 1248.2 195.327 1246.06 195.917C1245.53 196.065 1244.95 196.227 1244.34 196.419C1243.72 196.582 1243.23 196.921 1242.71 197.409C1242.23 197.867 1241.71 198.502 1241.67 199.077C1241.62 199.712 1242.03 200.407 1242.62 200.835C1243.86 201.691 1245.59 201.647 1246.98 201.632C1248.4 201.573 1249.69 201.307 1250.75 201.027C1252.87 200.451 1254.13 199.904 1254.17 200.008L1254.16 200.023Z" fill="#EB996E"/>
<path d="M1256.06 194.381C1256.09 194.47 1255.15 194.869 1253.54 195.135C1252.74 195.267 1251.76 195.356 1250.67 195.341C1249.62 195.297 1248.21 195.164 1247.26 194.027C1246.34 192.846 1246.58 191.354 1247.12 190.365C1247.68 189.316 1248.57 188.74 1249.3 188.356C1250.81 187.648 1251.82 187.559 1251.83 187.633C1251.88 187.751 1250.9 188.046 1249.55 188.829C1248.89 189.228 1248.15 189.818 1247.74 190.675C1247.31 191.517 1247.2 192.727 1247.86 193.525C1248.51 194.352 1249.7 194.544 1250.7 194.603C1251.74 194.662 1252.69 194.632 1253.48 194.559C1255.07 194.441 1256.03 194.234 1256.06 194.337V194.381Z" fill="#EB996E"/>
<path d="M1251.25 205.457C1251.25 205.56 1250.48 205.782 1249.19 206.092C1247.92 206.387 1246.09 206.83 1244 206.712C1243.51 206.712 1242.78 206.55 1242.41 206.033C1242.04 205.56 1241.94 204.999 1241.95 204.497C1242.03 203.493 1242.59 202.725 1243.2 202.311C1244.49 201.529 1245.45 202.001 1245.39 202.06C1245.39 202.193 1244.49 202.001 1243.53 202.754C1243.08 203.124 1242.68 203.773 1242.67 204.527C1242.67 204.881 1242.77 205.28 1242.99 205.546C1243.21 205.826 1243.54 205.9 1244.04 205.929C1246 206.048 1247.78 205.708 1249.09 205.546C1250.39 205.368 1251.22 205.339 1251.24 205.442L1251.25 205.457Z" fill="#EB996E"/>
<path d="M1032.1 287.607C1032.1 287.607 1031.64 287.947 1030.7 288.405C1029.78 288.863 1028.39 289.439 1026.61 289.955C1023.08 291.019 1017.86 291.713 1012.25 290.649C1006.64 289.601 1002.05 287.002 999.184 284.698C997.745 283.546 996.677 282.483 995.994 281.715C995.312 280.947 994.986 280.475 995.016 280.445C995.119 280.342 996.573 282.114 999.51 284.27C1002.42 286.426 1006.93 288.877 1012.4 289.896C1017.86 290.93 1022.96 290.339 1026.46 289.424C1029.99 288.523 1032.02 287.46 1032.08 287.593L1032.1 287.607Z" fill="#FF725E"/>
<path d="M998.413 232.998C998.413 232.998 1045.34 218.054 1047.09 217.596C1048.84 217.138 1090.23 220.8 1090.23 220.8C1090.23 220.8 1088.45 248.105 1098.92 256.936L1068.48 267.864L1058.87 294.165C1058.87 294.165 1053.52 304.886 1057.77 314.942C1065.83 333.978 1079.82 364.014 1077.74 367.455C1077.52 367.81 1076.33 357.044 1056.39 351.433C1050.37 349.734 1039.44 349.72 1029.55 351.698C986.976 360.234 970.542 379.816 965.691 383.168C965.691 383.168 974.458 314.691 970.304 304C966.166 293.308 961.776 286.338 965.187 276.813C968.599 267.288 973.731 252.092 973.731 252.092L956.97 233.146L980.406 194.352L1001.84 212.043L998.398 232.969L998.413 232.998Z" fill="white"/>
<path d="M1014 296.454C1014 296.454 1013.42 296.542 1012.38 296.527C1011.35 296.498 1009.83 296.365 1008.01 295.966C1004.39 295.213 999.406 293.234 995.223 289.277C991.011 285.348 988.83 280.431 988 276.828C987.584 275.011 987.421 273.52 987.406 272.486C987.377 271.452 987.436 270.876 987.481 270.876C987.629 270.876 987.555 273.18 988.519 276.695C989.468 280.18 991.663 284.905 995.742 288.715C999.792 292.54 1004.6 294.549 1008.13 295.42C1011.69 296.321 1014 296.291 1013.99 296.439L1014 296.454Z" fill="#263238"/>
<path d="M969.948 238.551C970.081 238.418 972.514 241.726 973.211 246.599C973.967 251.472 972.588 255.341 972.425 255.253C972.187 255.208 973.181 251.398 972.439 246.717C971.772 242.036 969.71 238.669 969.933 238.551H969.948Z" fill="#263238"/>
<path d="M1069.55 246.643C1069.62 246.761 1068.59 247.426 1067.16 248.799C1065.74 250.158 1064 252.299 1062.79 255.031C1061.57 257.763 1061.14 260.48 1061.12 262.43C1061.1 264.394 1061.32 265.605 1061.18 265.634C1061.11 265.649 1060.68 264.468 1060.58 262.43C1060.46 260.406 1060.81 257.556 1062.09 254.706C1063.36 251.856 1065.25 249.685 1066.81 248.386C1068.36 247.086 1069.52 246.569 1069.56 246.629L1069.55 246.643Z" fill="#263238"/>
<g opacity="0.3">
<path d="M1007.03 295.435C1001.9 294.297 998.961 292.422 995.282 288.819C993.294 286.869 991.529 284.669 990.194 281.804C989.126 286.441 995.608 294.667 1001.93 297.679C1008.25 300.706 1016.15 300.485 1022.28 297.133C1017.01 297.015 1012.16 296.572 1007.03 295.435Z" fill="black"/>
</g>
<path d="M1064.52 329.37C1064.46 329.444 1063.29 328.528 1060.86 327.435C1058.44 326.357 1054.67 325.22 1049.9 325.161C1045.15 325.073 1039.44 326.018 1033.63 328.454C1027.78 330.847 1021.89 334.568 1015.81 338.629C1003.75 346.943 991.871 353.027 983.016 356.734C978.596 358.609 974.947 359.953 972.411 360.839C971.15 361.282 970.156 361.592 969.474 361.814C968.792 362.021 968.436 362.124 968.436 362.094C968.436 362.065 968.762 361.917 969.429 361.666C970.156 361.386 971.12 361.016 972.307 360.559C974.814 359.599 978.418 358.181 982.794 356.246C991.56 352.407 1003.32 346.293 1015.37 337.994C1021.43 333.933 1027.4 330.197 1033.33 327.805C1039.25 325.383 1045.06 324.467 1049.88 324.63C1054.73 324.762 1058.54 325.988 1060.96 327.169C1063.38 328.366 1064.51 329.37 1064.51 329.37H1064.52Z" fill="#3268F3"/>
<path d="M1056.02 304.886C1056.02 304.886 1055.15 303.926 1053.21 302.7C1051.29 301.46 1048.15 300.146 1044.05 299.835C1039.96 299.481 1035.07 300.397 1030.02 302.405C1024.96 304.413 1019.71 307.337 1014.14 310.291C1008.57 313.274 1003.19 316.02 998.073 317.999C992.955 319.993 988.12 321.219 983.996 321.75C979.873 322.311 976.476 322.164 974.162 321.913C973.005 321.765 972.115 321.632 971.522 321.484C970.929 321.351 970.617 321.278 970.617 321.248C970.617 321.174 971.893 321.425 974.192 321.602C976.491 321.765 979.843 321.824 983.922 321.204C987.986 320.613 992.763 319.343 997.821 317.335C1002.89 315.326 1008.22 312.58 1013.78 309.597C1019.36 306.643 1024.64 303.734 1029.77 301.74C1034.89 299.732 1039.93 298.846 1044.11 299.289C1048.3 299.673 1051.5 301.105 1053.38 302.449C1055.31 303.778 1056.04 304.886 1056.04 304.886H1056.02Z" fill="#3268F3"/>
<path d="M993.37 286.279C993.37 286.279 993.059 286.589 992.421 287.047C992.11 287.283 991.709 287.549 991.22 287.815C990.73 288.081 990.181 288.421 989.543 288.701C988.283 289.321 986.681 289.883 984.871 290.34C983.047 290.769 981.015 291.064 978.849 291.108C976.683 291.123 974.636 290.887 972.812 290.518C970.988 290.104 969.386 289.587 968.095 289.011C967.443 288.76 966.879 288.435 966.389 288.184C965.885 287.933 965.485 287.682 965.158 287.461C964.506 287.018 964.165 286.767 964.194 286.722C964.268 286.604 965.722 287.535 968.303 288.524C969.593 289.026 971.166 289.469 972.96 289.838C974.755 290.163 976.743 290.37 978.849 290.355C980.955 290.311 982.943 290.045 984.723 289.661C986.488 289.248 988.06 288.76 989.336 288.214C991.887 287.151 993.311 286.176 993.4 286.294L993.37 286.279Z" fill="#3268F3"/>
<path d="M1063.1 282.557C1063.1 282.557 1062.92 282.749 1062.52 283.059C1062.13 283.369 1061.51 283.783 1060.67 284.241C1058.99 285.156 1056.32 286.146 1052.89 286.456C1049.47 286.795 1045.33 286.47 1040.94 285.363C1036.53 284.3 1031.89 282.572 1026.91 281.184C1016.94 278.363 1007.39 278.526 1000.71 279.5C997.359 279.988 994.674 280.608 992.85 281.11C991.011 281.597 990.017 281.907 989.987 281.848C989.987 281.819 990.225 281.715 990.684 281.538C991.159 281.376 991.841 281.095 992.761 280.815C994.571 280.224 997.255 279.515 1000.62 278.954C1007.33 277.832 1017.01 277.58 1027.11 280.431C1032.14 281.833 1036.77 283.591 1041.1 284.669C1045.43 285.806 1049.47 286.175 1052.83 285.909C1056.2 285.658 1058.83 284.772 1060.52 283.96C1062.22 283.148 1063.05 282.483 1063.1 282.542V282.557Z" fill="#3268F3"/>
<path d="M1061.87 260.407C1061.87 260.407 1061.54 260.48 1060.92 260.554C1060.3 260.613 1059.38 260.731 1058.19 260.805C1055.82 260.835 1052.33 260.835 1048.12 260.096C1043.91 259.417 1038.98 258.162 1033.55 256.7C1028.12 255.268 1022.15 253.643 1015.72 253.023C1014.12 252.964 1012.53 252.772 1010.96 252.875C1010.18 252.905 1009.4 252.89 1008.63 252.949C1007.86 253.038 1007.11 253.126 1006.36 253.215C1003.35 253.584 1000.53 254.426 997.894 255.327C992.614 257.187 988.016 259.329 983.966 260.687C979.932 262.09 976.491 262.71 974.103 262.843C972.916 262.932 971.981 262.902 971.358 262.858C970.736 262.828 970.409 262.799 970.409 262.769C970.409 262.74 970.736 262.725 971.358 262.71C971.981 262.71 972.901 262.696 974.073 262.548C976.431 262.326 979.798 261.632 983.774 260.17C987.764 258.753 992.332 256.582 997.657 254.662C1000.31 253.732 1003.19 252.86 1006.26 252.462C1007.03 252.373 1007.8 252.27 1008.59 252.181C1009.37 252.122 1010.16 252.122 1010.96 252.093C1012.56 251.989 1014.17 252.181 1015.8 252.24C1022.31 252.875 1028.32 254.529 1033.73 256.006C1039.14 257.512 1044.02 258.812 1048.21 259.55C1052.38 260.362 1055.82 260.436 1058.17 260.495C1059.29 260.451 1060.19 260.407 1060.9 260.377C1061.53 260.362 1061.85 260.362 1061.87 260.377V260.407Z" fill="#3268F3"/>
<path d="M1076.67 220.785C1076.81 220.859 1075.29 223.015 1073.87 226.928C1072.44 230.812 1071.32 236.631 1072.43 242.892C1073.53 249.153 1076.52 254.263 1079.15 257.467C1081.77 260.716 1083.91 262.267 1083.81 262.385C1083.78 262.414 1083.23 262.06 1082.31 261.322C1081.39 260.583 1080.13 259.417 1078.73 257.822C1075.96 254.662 1072.8 249.463 1071.67 243.025C1070.55 236.601 1071.78 230.635 1073.36 226.751C1074.15 224.787 1074.97 223.281 1075.6 222.277C1076.24 221.272 1076.64 220.77 1076.69 220.8L1076.67 220.785Z" fill="#3268F3"/>
<path d="M998.382 225.423C998.382 225.423 997.922 225.585 997.062 225.718C996.201 225.851 994.97 226.028 993.413 226.102C991.855 226.176 989.972 226.161 987.939 225.674C985.893 225.216 983.771 224.064 982.081 222.351C980.36 220.668 979.055 218.836 977.735 217.315C976.429 215.794 975.035 214.613 973.744 213.86C971.104 212.295 969.072 212.664 969.087 212.516C969.087 212.486 969.547 212.339 970.437 212.354C971.312 212.383 972.602 212.634 974.011 213.387C975.406 214.126 976.889 215.307 978.269 216.858C979.648 218.379 980.968 220.195 982.615 221.805C984.246 223.444 986.174 224.522 988.117 224.994C990.046 225.497 991.885 225.57 993.398 225.556C996.468 225.497 998.367 225.29 998.382 225.408V225.423Z" fill="#3268F3"/>
</g>
</g>
<defs>
<linearGradient id="paint0_linear_855_2082" x1="816.918" y1="-408.941" x2="1436.38" y2="1145.07" gradientUnits="userSpaceOnUse">
<stop stop-color="white"/>
<stop offset="1" stop-color="#FFEA89"/>
</linearGradient>
<linearGradient id="paint1_linear_855_2082" x1="844.908" y1="-317.996" x2="1399.17" y2="1072.43" gradientUnits="userSpaceOnUse">
<stop stop-color="white"/>
<stop offset="1" stop-color="#FFEA89"/>
</linearGradient>
<linearGradient id="paint2_linear_855_2082" x1="879.85" y1="-214.976" x2="1355.86" y2="979.156" gradientUnits="userSpaceOnUse">
<stop stop-color="white"/>
<stop offset="1" stop-color="#FFEA89"/>
</linearGradient>
<linearGradient id="paint3_linear_855_2082" x1="906.159" y1="-131.491" x2="1316.96" y2="899.061" gradientUnits="userSpaceOnUse">
<stop stop-color="white"/>
<stop offset="1" stop-color="#FFEA89"/>
</linearGradient>
<linearGradient id="paint4_linear_855_2082" x1="937.366" y1="-35.9895" x2="1282.96" y2="830.983" gradientUnits="userSpaceOnUse">
<stop stop-color="white"/>
<stop offset="1" stop-color="#FFEA89"/>
</linearGradient>
<linearGradient id="paint5_linear_855_2082" x1="961.229" y1="37.6072" x2="1252.36" y2="767.953" gradientUnits="userSpaceOnUse">
<stop stop-color="white"/>
<stop offset="1" stop-color="#FFEA89"/>
</linearGradient>
<linearGradient id="paint6_linear_855_2082" x1="985.089" y1="111.215" x2="1221.76" y2="704.946" gradientUnits="userSpaceOnUse">
<stop stop-color="white"/>
<stop offset="1" stop-color="#FFEA89"/>
</linearGradient>
<linearGradient id="paint7_linear_855_2082" x1="1008.95" y1="184.809" x2="1191.17" y2="641.924" gradientUnits="userSpaceOnUse">
<stop stop-color="white"/>
<stop offset="1" stop-color="#FFEA89"/>
</linearGradient>
<clipPath id="clip0_855_2082">
<rect width="1497" height="466.848" rx="46.299" fill="white"/>
</clipPath>
<clipPath id="clip1_855_2082">
<rect width="366.534" height="632.753" fill="white" transform="translate(898.972 42.4404)"/>
</clipPath>
</defs>
</svg>
