<svg width="40" height="26" viewBox="0 0 40 26" fill="none" xmlns="http://www.w3.org/2000/svg">
<path d="M12.1895 0.277363C12.5551 -0.0924541 13.1478 -0.0924543 13.5134 0.277362C13.879 0.647179 13.879 1.24677 13.5134 1.61659L1.59812 13.6696C1.23253 14.0394 0.639785 14.0394 0.274194 13.6696C-0.0913979 13.2998 -0.0913979 12.7002 0.274194 12.3304L12.1895 0.277363Z" fill="#3268F3"/>
<path d="M13.5134 24.3834C13.879 24.7532 13.879 25.3528 13.5134 25.7226C13.1478 26.0925 12.5551 26.0925 12.1895 25.7226L0.274194 13.6696C-0.0913979 13.2998 -0.0913979 12.7002 0.274194 12.3304C0.639785 11.9606 1.23253 11.9606 1.59812 12.3304L13.5134 24.3834Z" fill="#3268F3"/>
<path d="M39.0638 12.053C39.5809 12.053 40 12.477 40 13C40 13.523 39.5809 13.947 39.0638 13.947L1.61761 13.947C1.10058 13.947 0.681448 13.523 0.681448 13C0.681448 12.477 1.10058 12.053 1.6176 12.053L39.0638 12.053Z" fill="#3268F3"/>
</svg>
