<svg width="131" height="58" viewBox="0 0 131 58" fill="none" xmlns="http://www.w3.org/2000/svg">
<path d="M14.5 14C14.5 10.134 17.634 7 21.5 7H109.5C113.366 7 116.5 10.134 116.5 14V44C116.5 47.866 113.366 51 109.5 51H21.5C17.634 51 14.5 47.866 14.5 44V14Z" fill="#3268F2"/>
<path d="M25.5 20C25.5 18.6193 26.6193 17.5 28 17.5H38C39.3807 17.5 40.5 18.6193 40.5 20V38C40.5 39.3807 39.3807 40.5 38 40.5H28C26.6193 40.5 25.5 39.3807 25.5 38V20Z" fill="white"/>
<path d="M47.5 20C47.5 18.6193 48.6193 17.5 50 17.5H60C61.3807 17.5 62.5 18.6193 62.5 20V38C62.5 39.3807 61.3807 40.5 60 40.5H50C48.6193 40.5 47.5 39.3807 47.5 38V20Z" fill="white"/>
<path d="M69.5 20C69.5 18.6193 70.6193 17.5 72 17.5H82C83.3807 17.5 84.5 18.6193 84.5 20V38C84.5 39.3807 83.3807 40.5 82 40.5H72C70.6193 40.5 69.5 39.3807 69.5 38V20Z" fill="white"/>
<path d="M91.5 20C91.5 18.6193 92.6193 17.5 94 17.5H104C105.381 17.5 106.5 18.6193 106.5 20V38C106.5 39.3807 105.381 40.5 104 40.5H94C92.6193 40.5 91.5 39.3807 91.5 38V20Z" fill="white"/>
<path d="M28.5 29C28.5 28.1716 29.1716 27.5 30 27.5H36C36.8284 27.5 37.5 28.1716 37.5 29C37.5 29.8284 36.8284 30.5 36 30.5H30C29.1716 30.5 28.5 29.8284 28.5 29Z" fill="#3268F2"/>
<path d="M50.5 29C50.5 28.1716 51.1716 27.5 52 27.5H58C58.8284 27.5 59.5 28.1716 59.5 29C59.5 29.8284 58.8284 30.5 58 30.5H52C51.1716 30.5 50.5 29.8284 50.5 29Z" fill="#3268F2"/>
<path d="M72.5 29C72.5 28.1716 73.1716 27.5 74 27.5H80C80.8284 27.5 81.5 28.1716 81.5 29C81.5 29.8284 80.8284 30.5 80 30.5H74C73.1716 30.5 72.5 29.8284 72.5 29Z" fill="#3268F2"/>
<path d="M94.5 29C94.5 28.1716 95.1716 27.5 96 27.5H102C102.828 27.5 103.5 28.1716 103.5 29C103.5 29.8284 102.828 30.5 102 30.5H96C95.1716 30.5 94.5 29.8284 94.5 29Z" fill="#3268F2"/>
<path d="M14.5 14C14.5 10.134 17.634 7 21.5 7H109.5C113.366 7 116.5 10.134 116.5 14V44C116.5 47.866 113.366 51 109.5 51H21.5C17.634 51 14.5 47.866 14.5 44V14Z" stroke="#3268F2" stroke-width="2"/>
</svg>