<svg width="40" height="26" viewBox="0 0 40 26" fill="none" xmlns="http://www.w3.org/2000/svg">
<path d="M27.8105 0.277363C27.4449 -0.0924541 26.8522 -0.0924543 26.4866 0.277362C26.121 0.647179 26.121 1.24677 26.4866 1.61659L38.4019 13.6696C38.7675 14.0394 39.3602 14.0394 39.7258 13.6696C40.0914 13.2998 40.0914 12.7002 39.7258 12.3304L27.8105 0.277363Z" fill="#3268F3"/>
<path d="M26.4866 24.3834C26.121 24.7532 26.121 25.3528 26.4866 25.7226C26.8522 26.0925 27.4449 26.0925 27.8105 25.7226L39.7258 13.6696C40.0914 13.2998 40.0914 12.7002 39.7258 12.3304C39.3602 11.9606 38.7675 11.9606 38.4019 12.3304L26.4866 24.3834Z" fill="#3268F3"/>
<path d="M0.936157 12.053C0.419132 12.053 -2.25999e-08 12.477 0 13C2.25999e-08 13.523 0.419132 13.947 0.936157 13.947L38.3824 13.947C38.8994 13.947 39.3186 13.523 39.3186 13C39.3186 12.477 38.8994 12.053 38.3824 12.053L0.936157 12.053Z" fill="#3268F3"/>
</svg>
