<svg width="12" height="26" viewBox="0 0 12 26" fill="none" xmlns="http://www.w3.org/2000/svg">
<g clip-path="url(#clip0_30_1299)">
<path d="M2.68798 5.33833C2.68798 5.96574 2.68798 8.78306 2.68798 8.78306H0.166267V12.994H2.68798V25.5H7.87017V12.9879H11.3451C11.3451 12.9879 11.6708 10.9669 11.8277 8.76497C11.3752 8.76497 7.88827 8.76497 7.88827 8.76497C7.88827 8.76497 7.88827 6.31564 7.88827 5.88731C7.88827 5.45898 8.45536 4.87983 9.01038 4.87983C9.5654 4.87983 10.7418 4.87983 11.8337 4.87983C11.8337 4.30671 11.8337 2.32795 11.8337 0.500006C10.3798 0.500006 8.72683 0.500006 7.99686 0.500006C2.5613 0.493974 2.68798 4.70488 2.68798 5.33833Z" fill="#3268F3"/>
</g>
<defs>
<clipPath id="clip0_30_1299">
<rect width="12" height="26" fill="white"/>
</clipPath>
</defs>
</svg>
