<svg width="19" height="18" viewBox="0 0 19 18" fill="none" xmlns="http://www.w3.org/2000/svg">
<path d="M0.853449 5.96451H4.58127V17.9468H0.853449V5.96451ZM2.71736 0C3.91559 0 4.87417 0.95858 4.87417 2.15681C4.87417 3.35504 3.91559 4.31362 2.71736 4.31362C1.51913 4.31362 0.560547 3.35504 0.560547 2.15681C0.560547 0.95858 1.51913 0 2.71736 0Z" fill="#3268F3"/>
<path d="M10.4927 5.96446V7.61535H10.546C11.0519 6.6834 12.2501 5.67156 14.0608 5.67156C17.8419 5.67156 18.5342 8.1479 18.5342 11.3964V17.9734H14.8064V12.142C14.8064 10.7574 14.7797 8.97335 12.8626 8.97335C10.9188 8.97335 10.6259 10.4911 10.6259 12.0621V18H6.89805V5.96446H10.4927Z" fill="#3268F3"/>
</svg>
