<svg width="22" height="22" viewBox="0 0 22 22" fill="none" xmlns="http://www.w3.org/2000/svg">
<g clip-path="url(#clip0_30_1301)">
<path d="M11 1.98272C13.9372 1.98272 14.2864 1.99436 15.4427 2.04868C16.5136 2.09912 17.0956 2.2776 17.4836 2.42892C17.9958 2.62681 18.3644 2.86737 18.7485 3.2515C19.1326 3.63563 19.3732 4.00423 19.5711 4.5164C19.7224 4.90441 19.9009 5.48642 19.9513 6.55732C20.0056 7.71746 20.0173 8.06667 20.0173 11C20.0173 13.9372 20.0056 14.2864 19.9513 15.4427C19.9009 16.5136 19.7224 17.0956 19.5711 17.4836C19.3732 17.9958 19.1326 18.3644 18.7485 18.7485C18.3644 19.1326 17.9958 19.3732 17.4836 19.5711C17.0956 19.7224 16.5136 19.9009 15.4427 19.9513C14.2825 20.0056 13.9333 20.0173 11 20.0173C8.06279 20.0173 7.71358 20.0056 6.55732 19.9513C5.48642 19.9009 4.90441 19.7224 4.5164 19.5711C4.00423 19.3732 3.63563 19.1326 3.2515 18.7485C2.86737 18.3644 2.62681 17.9958 2.42892 17.4836C2.2776 17.0956 2.09912 16.5136 2.04868 15.4427C1.99436 14.2825 1.98272 13.9333 1.98272 11C1.98272 8.06279 1.99436 7.71358 2.04868 6.55732C2.09912 5.48642 2.2776 4.90441 2.42892 4.5164C2.62681 4.00423 2.86737 3.63563 3.2515 3.2515C3.63563 2.86737 4.00423 2.62681 4.5164 2.42892C4.90441 2.2776 5.48642 2.09912 6.55732 2.04868C7.71358 1.99436 8.06279 1.98272 11 1.98272ZM11 0C8.01235 0 7.63986 0.0116402 6.4642 0.0659612C5.29242 0.120282 4.49312 0.306526 3.79471 0.57813C3.06914 0.857496 2.45608 1.23386 1.84691 1.84691C1.23386 2.45608 0.857496 3.06914 0.57813 3.79471C0.306526 4.49312 0.120282 5.29242 0.0659612 6.4642C0.0116402 7.63598 0 8.01235 0 11C0 13.9877 0.0116402 14.3601 0.0659612 15.5358C0.120282 16.7076 0.306526 17.5069 0.57813 18.2053C0.857496 18.927 1.23386 19.54 1.84691 20.1531C2.45996 20.7661 3.07302 21.1425 3.79471 21.4219C4.49312 21.6935 5.29242 21.8797 6.4642 21.934C7.63598 21.9884 8.01235 22 11 22C13.9877 22 14.3601 21.9884 15.5358 21.934C16.7076 21.8797 17.5069 21.6935 18.2053 21.4219C18.927 21.1425 19.54 20.7661 20.1531 20.1531C20.7661 19.54 21.1425 18.927 21.4219 18.2053C21.6935 17.5069 21.8797 16.7076 21.934 15.5358C21.9884 14.364 22 13.9877 22 11C22 8.01235 21.9884 7.63986 21.934 6.4642C21.8797 5.29242 21.6935 4.49312 21.4219 3.79471C21.1425 3.07302 20.7661 2.45996 20.1531 1.84691C19.54 1.23386 18.927 0.857496 18.2053 0.57813C17.5069 0.306526 16.7076 0.120282 15.5358 0.0659612C14.3601 0.0116402 13.9838 0 11 0Z" fill="#3268F3"/>
<path d="M11 5.35062C7.88041 5.35062 5.3506 7.88042 5.3506 11C5.3506 14.1196 7.88041 16.6494 11 16.6494C14.1196 16.6494 16.6494 14.1196 16.6494 11C16.6455 7.88042 14.1196 5.35062 11 5.35062ZM11 14.6667C8.97459 14.6667 7.33332 13.0254 7.33332 11C7.33332 8.9746 8.97459 7.33333 11 7.33333C13.0254 7.33333 14.6666 8.9746 14.6666 11C14.6666 13.0215 13.0215 14.6667 11 14.6667Z" fill="#3268F3"/>
<path d="M18.1897 5.12948C18.1897 5.85893 17.6 6.4487 16.8705 6.4487C16.1411 6.4487 15.5513 5.85893 15.5513 5.12948C15.5513 4.40003 16.1411 3.81026 16.8705 3.81026C17.6 3.80638 18.1897 4.40003 18.1897 5.12948Z" fill="#3268F3"/>
</g>
<defs>
<clipPath id="clip0_30_1301">
<rect width="22" height="22" fill="white"/>
</clipPath>
</defs>
</svg>
