<svg width="26" height="22" viewBox="0 0 26 22" fill="none" xmlns="http://www.w3.org/2000/svg">
<g clip-path="url(#clip0_30_1305)">
<path d="M25.5 2.98298C24.586 3.40415 23.5915 3.6931 22.5544 3.82043C23.6152 3.16418 24.425 2.12593 24.8133 0.881996C23.8188 1.48927 22.7249 1.93004 21.5457 2.17001C20.6174 1.14646 19.282 0.5 17.8091 0.5C14.9772 0.5 12.6803 2.87523 12.6803 5.79897C12.6803 6.21525 12.7277 6.61684 12.8129 7.00863C8.54603 6.78825 4.77164 4.68237 2.23802 1.46968C1.79286 2.25326 1.54186 3.16418 1.54186 4.13876C1.54186 5.97528 2.45113 7.60121 3.82449 8.54641C2.98627 8.52192 2.20013 8.28195 1.50871 7.88526V7.94893C1.50871 10.5201 3.27988 12.6651 5.61934 13.1549C5.19312 13.2724 4.73376 13.3361 4.26965 13.3361C3.94289 13.3361 3.62086 13.3067 3.29883 13.243C3.95709 15.3489 5.84666 16.8769 8.0914 16.9258C6.33444 18.3461 4.12285 19.1884 1.72182 19.1884C1.30981 19.1884 0.907274 19.1639 0.5 19.1199C2.77316 20.6283 5.4678 21.5 8.36607 21.5C17.7949 21.5 22.9522 13.4193 22.9522 6.41604L22.938 5.73041C23.9419 4.98111 24.8133 4.05061 25.5 2.98298Z" fill="#3268F3"/>
</g>
<defs>
<clipPath id="clip0_30_1305">
<rect width="26" height="22" fill="white"/>
</clipPath>
</defs>
</svg>
