<svg width="385" height="246" viewBox="0 0 385 246" fill="none" xmlns="http://www.w3.org/2000/svg">
<path d="M372.546 51.6672C378.456 50.1792 385.493 46.5272 384.973 40.4569C384.509 35.0276 378.017 32.2294 372.564 32.3409C367.111 32.4524 361.596 34.2506 356.293 32.9717C349.365 31.3025 344.788 24.9463 340.532 19.2383C336.017 13.1854 331.029 7.24043 324.467 3.49783C317.905 -0.248249 309.438 -1.44003 302.813 2.19106C297.741 4.96839 294.228 10.2199 288.866 12.3769C281.609 15.2971 273.579 11.7462 265.984 9.87488C258.389 8.00358 248.199 9.27203 245.9 16.7398C243.975 22.9879 248.723 30.947 244.302 35.7664C221.669 60.4452 266.05 51.953 282.203 53.0611C312.25 55.1206 342.89 59.135 372.546 51.6637V51.6672Z" fill="white" fill-opacity="0.5"/>
<path d="M7.16531 180.946C11.1952 183.183 16.1655 184 20.9844 184.768C24.5246 185.33 28.0648 185.895 31.6086 186.457C39.5732 187.724 47.9886 188.973 55.6714 186.876C61.2441 185.354 65.9856 182.164 71.6922 180.999C77.3953 179.833 83.4118 180.81 89.291 180.559C90.9713 180.486 92.6727 180.308 94.2015 179.746C97.4599 178.545 99.4819 175.509 98.9007 172.685C98.3195 169.862 95.1843 167.499 91.616 167.192C86.8957 166.787 81.1891 169.38 77.8955 166.655C76.7471 165.705 76.3349 164.355 75.5353 163.2C73.9325 160.882 70.8432 159.469 67.7398 158.527C57.9576 155.55 49.8028 157.654 40.0064 158.75C33.3593 159.493 27.2899 158.289 20.6956 157.853C12.3083 157.302 3.75544 158.272 0.778844 165.514C-1.458 170.954 1.26144 177.666 7.16531 180.943V180.946Z" fill="white" fill-opacity="0.4"/>
<g clip-path="url(#clip0_35_1364)">
<path d="M199.038 59.5108C196.549 58.6171 192.336 57.5272 187.962 58.9321C179.594 61.6197 179.288 70.6567 172.66 72.8363C164.601 75.4886 159.664 62.1951 149.171 63.2013C146.977 63.4103 145.189 64.1627 132.534 75.8615C115.509 91.5982 114.988 93.7134 114.914 95.4044C114.525 104.499 126.897 106.596 129.382 119.683C131.187 129.177 125.408 131.919 127.327 138.201C131.846 152.979 169.332 155.866 196.854 150.607C205.174 149.019 228.509 144.113 232.446 131.369C233.475 128.042 232.886 124.152 230.603 119.375C225.01 107.669 222.071 100.098 220.36 92.8197C219.244 88.0778 219.549 87.0652 219.257 85.4771C219.257 85.4771 219.08 84.6218 218.774 83.7603C218.205 82.1432 210.368 72.3959 199.038 59.5076V59.5108Z" fill="#262626"/>
<path d="M187.917 117.469C189.834 115.742 190.76 113.35 191.081 112.521C192.271 109.444 192.168 106.693 192.001 105.207C196.481 102.783 200.964 100.362 205.444 97.9385C205.643 98.5815 205.959 99.6488 206.271 100.983C208.58 110.808 206.206 115.373 208.708 117.597C211.895 120.433 218.848 115.771 219.98 117.546C220.948 119.063 216.784 123.927 212.12 127.554C211.107 128.341 197.751 138.407 182.742 134.568C176.876 133.067 175.214 130.582 174.789 129.891C172.072 125.454 174.49 119.918 174.886 119.044C175.42 119.224 183.176 121.738 187.914 117.472L187.917 117.469Z" fill="#FFC4A7"/>
<path d="M222.569 194.918C222.569 194.918 195.13 206.523 169.451 197.731C169.451 197.731 158.545 224.806 166.637 272.984C174.728 321.158 180.006 366.172 180.006 366.172L199.353 365.822C199.353 365.822 194.076 250.833 195.13 244.503C196.185 238.173 210.609 360.546 210.609 366.176L227.847 366.526C227.847 366.526 234.468 328.012 231.564 304.425C231.069 300.4 230.953 296.336 231.304 292.298C233.044 272.225 236.81 212.934 222.569 194.924V194.918Z" fill="#262626"/>
<path d="M167.342 134.083C167.342 134.083 157.141 129.161 152.217 123.181C147.293 117.202 141.665 111.225 137.793 109.116C133.924 107.007 121.26 91.8847 118.446 89.7757C115.632 87.6668 114.223 86.2587 113.522 81.3367C112.818 76.4148 111.763 73.6018 112.114 72.8978C112.464 72.1937 114.223 74.3059 116.336 79.2278C116.336 79.2278 117.04 81.3367 118.095 80.2823C119.15 79.2278 119.504 66.5678 122.318 66.9182C122.318 66.9182 123.373 65.8637 122.668 72.8978C122.668 72.8978 121.614 78.1733 121.964 78.5238C122.315 78.8742 125.482 73.6018 125.482 72.8978C125.482 72.1937 126.187 69.3807 127.242 69.7344C128.296 70.0848 127.946 73.2514 127.242 74.3059C127.242 74.3059 129.351 73.6018 128.65 75.714C128.65 75.714 127.946 77.8229 125.486 81.6936C125.486 81.6936 124.077 85.9147 125.135 86.6155C126.193 87.3164 129.708 85.9115 130.059 85.5611C130.409 85.2106 131.818 86.6155 129.004 87.67C126.19 88.7245 127.949 90.8334 129.355 91.187C130.763 91.5374 147.647 99.2756 150.461 102.793C153.275 106.31 171.918 116.507 172.623 117.912L167.345 134.089L167.342 134.083Z" fill="#FFC4A7"/>
<path d="M232.684 111.537C232.684 111.537 245.786 99.62 250.005 96.1029C254.228 92.5859 283.071 68.3234 287.995 64.456C287.995 64.456 291.514 53.9081 295.734 51.0919C295.734 51.0919 297.493 45.4659 298.548 49.3333L297.843 54.2553C297.843 54.2553 299.251 54.9593 299.952 53.9049C300.663 52.8504 306.645 47.2244 306.645 47.2244C306.645 47.2244 309.81 46.1699 309.459 48.6325L304.536 53.5544C304.536 53.5544 302.426 55.313 304.536 55.313L309.809 51.4423C309.809 51.4423 314.033 50.0374 311.92 53.9049L305.236 58.8268C305.236 58.8268 303.827 60.9357 306.291 60.5853C308.754 60.2349 311.214 58.1227 311.214 58.1227C311.214 58.1227 314.029 58.4731 311.566 60.5853C309.102 62.6942 304.882 64.4528 304.882 64.4528C304.882 64.4528 304.179 66.2113 306.993 66.9153C309.81 67.6194 313.328 69.7283 312.975 70.082C312.621 70.4356 313.324 72.8949 305.236 68.6739C305.236 68.6739 302.773 68.6739 298.554 70.7828C294.335 72.8917 289.056 74.2998 285.184 80.6299C281.315 86.9599 265.133 105.95 264.783 105.95C264.432 105.95 236.288 134.434 236.288 134.434L226.438 131.27L232.684 111.537Z" fill="#FFC4A7"/>
<path d="M188.448 117.202L171.914 116.851L165.932 134.787L171.56 138.654C171.56 138.654 166.637 143.93 168.042 154.831C169.451 165.733 173.509 189.471 167.611 201.691C167.611 201.691 197.24 216.37 223.624 195.624C223.624 195.624 216.588 186.131 219.755 165.733C219.755 165.733 227.493 152.018 229.252 143.579L237.694 136.899L232.77 110.524C232.77 110.524 220.81 112.283 215.182 117.205L210.609 118.259C210.609 118.259 199.353 129.511 191.262 125.644C191.262 125.644 185.28 122.831 188.448 117.205V117.202Z" fill="#5B62FF"/>
<path d="M221.103 81.8381L190.165 64.2529C189.525 65.5774 188.85 67.1109 188.058 68.9112C186.894 71.5602 186.216 73.6145 185.547 75.6688C183.344 82.4296 182.684 87.5026 182.684 87.5026C182.324 89.9427 182.048 91.833 181.945 93.5626C181.864 94.8968 181.864 96.7774 182.244 98.6453C182.514 99.973 183.331 102.895 186.27 106.007C186.92 106.695 187.827 107.094 188.776 107.113C195.31 107.245 201.369 104.985 202.765 104.114C203.228 103.825 204.679 102.899 207.821 99.9473C210.365 97.5554 213.719 94.122 217.298 89.5215C218.028 88.5281 218.826 87.2808 221.103 81.8381Z" fill="#FFC4A7"/>
<path d="M196.205 85.1555C196.33 85.1587 196.446 85.2326 196.5 85.3548C196.635 85.6538 197.044 86.39 197.87 86.7211C198.855 87.1133 200.073 86.7918 200.906 85.9174C201.035 85.7823 201.247 85.7759 201.385 85.9045C201.521 86.0331 201.527 86.2453 201.398 86.3835C200.379 87.4541 198.864 87.8463 197.623 87.3512C196.568 86.93 196.057 86.0138 195.886 85.6377C195.809 85.4673 195.886 85.268 196.053 85.1908C196.102 85.1683 196.153 85.1587 196.205 85.1619V85.1555Z" fill="#262626"/>
<path d="M188.467 96.0574C188.592 96.0606 188.708 96.1346 188.763 96.2568C188.898 96.5557 189.306 97.2919 190.133 97.6231C191.117 98.0153 192.336 97.6938 193.169 96.8193C193.297 96.6843 193.51 96.6779 193.648 96.8065C193.783 96.9351 193.789 97.1473 193.661 97.2855C192.641 98.356 191.126 98.7483 189.885 98.2532C188.83 97.832 188.319 96.9158 188.148 96.5397C188.071 96.3693 188.148 96.17 188.316 96.0928C188.364 96.0703 188.415 96.0606 188.467 96.0639V96.0574Z" fill="#262626"/>
<path d="M187.135 81.4684C187.293 81.4748 187.431 81.5905 187.457 81.7513C187.611 82.7029 188.306 83.4584 189.149 83.5869C189.943 83.7027 190.57 83.2333 190.744 83.0854C190.885 82.9633 191.098 82.9793 191.22 83.1208C191.342 83.2622 191.326 83.4744 191.184 83.5966C190.956 83.7927 190.126 84.426 189.046 84.2524C187.917 84.0788 186.987 83.0919 186.788 81.8574C186.759 81.6741 186.885 81.5005 187.068 81.4716C187.09 81.4684 187.113 81.4651 187.135 81.4684Z" fill="#262626"/>
<path d="M203.006 83.497C202.791 83.6771 202.016 82.2336 200.234 81.896C198.916 81.6453 197.777 82.1372 197.526 81.6614C197.394 81.4074 197.61 81.0602 197.661 80.9766C198.157 80.1825 199.588 80.0507 200.569 80.3561C202.444 80.938 203.267 83.2849 203.006 83.5003V83.497Z" fill="#262626"/>
<path d="M192.525 80.0507C192.133 80.3304 191.387 79.3017 190.056 78.9448C188.538 78.5365 187.415 79.3049 187.277 79.0123C187.132 78.7069 188.193 77.5367 189.544 77.4017C190.959 77.2602 192.493 78.2729 192.66 79.3627C192.677 79.4624 192.741 79.8932 192.525 80.0475V80.0507Z" fill="#262626"/>
<path d="M213.391 109.361C212.32 110.216 212.268 109.422 210.493 111.138C208.892 112.688 208.02 114.414 207.538 115.636C207.219 112.627 206.026 101.725 206.055 101.6C206.669 98.9413 204.897 98.488 205.222 95.5239C205.463 93.3217 206.776 93.2317 207.448 90.0972C207.93 87.8468 207.502 85.8086 207.139 84.7124C205.766 80.5845 202.058 80.1601 198.523 76.4663C196.851 74.7174 194.761 71.763 193.683 66.6835C192.455 68.127 191.168 69.5865 189.827 71.0621C187.949 73.1261 186.084 75.0743 184.251 76.9131C184.411 75.4247 185.801 64.057 193.998 60.2795C196.97 58.91 199.951 58.9454 202.669 58.9807C205.618 59.0161 211.503 59.09 216.928 62.6714C224.907 67.9437 228.262 78.4177 226.612 86.5223C226.207 88.5123 225.152 90.6566 223.045 94.9452C219.685 101.777 217.597 106.017 213.397 109.364L213.391 109.361Z" fill="#262626"/>
<path d="M191.091 93.6233C191.091 93.6233 191.069 93.6073 191.059 93.5976C190.879 93.4304 189.284 91.9291 189.078 91.0129C188.866 90.0741 190.657 88.3253 191.438 87.618C191.586 87.483 191.815 87.4926 191.95 87.6437C192.085 87.7916 192.072 88.0199 191.924 88.1549C190.708 89.2608 189.708 90.521 189.785 90.8553C189.904 91.3826 190.93 92.4917 191.551 93.0672C191.699 93.2022 191.705 93.4337 191.57 93.5783C191.445 93.7133 191.236 93.7326 191.091 93.6233Z" fill="#262626"/>
<path d="M206.583 90.0263C207.811 88.5796 209.069 87.8434 209.84 87.4769C210.976 86.9368 211.612 86.9239 211.879 86.9336C213.143 86.9722 214.024 87.6923 214.224 87.8723C215.79 89.2901 215.719 91.5501 215.7 92.1963C215.571 96.3209 211.516 98.8671 210.741 99.3365C208.953 100.42 207.223 100.767 206.139 100.893C205.653 100.047 204.962 98.5649 204.811 96.6135C204.553 93.299 206.036 90.8461 206.583 90.0263Z" fill="#FFC4A7"/>
<path d="M207.772 97.5877C207.814 97.6616 207.891 97.7098 207.975 97.7195C208.03 97.7259 208.084 97.7131 208.133 97.6841C209.126 97.1119 209.602 96.53 209.596 95.9031C209.593 95.5173 209.393 95.2633 209.213 95.0319C209.162 94.9644 209.107 94.8968 209.065 94.8197C208.599 93.9999 209.348 92.2253 210.342 90.9876C211.017 90.1453 211.6 89.7949 211.908 89.7949C211.944 89.7949 211.976 89.7949 212.005 89.811C212.178 89.8624 212.59 90.2128 212.645 92.3185C212.648 92.4632 212.764 92.5757 212.918 92.5757C212.989 92.5757 213.053 92.5468 213.101 92.4954C213.153 92.4439 213.179 92.3764 213.175 92.3057C213.127 90.4539 212.802 89.4991 212.162 89.303C211.329 89.0458 210.323 90.1646 209.927 90.6565C208.811 92.0485 207.998 94.016 208.605 95.0833C208.663 95.1862 208.737 95.2826 208.814 95.3823C208.953 95.5623 209.062 95.7038 209.065 95.9095C209.072 96.4207 208.419 96.9061 207.869 97.2244C207.74 97.2983 207.698 97.4623 207.772 97.5877Z" fill="#262626"/>
<path d="M191.262 212.149L191.966 225.864C191.966 225.864 194.78 230.085 199.704 226.214" stroke="#3A3A3A" stroke-miterlimit="10"/>
<path d="M181.765 210.037C181.765 210.037 177.896 217.071 166.286 215.312" stroke="#3A3A3A" stroke-miterlimit="10"/>
<path d="M207.091 209.336C207.091 209.336 212.346 214.534 220.46 212.149C226.441 210.39 227.142 205.819 227.142 205.819" stroke="#3A3A3A" stroke-miterlimit="10"/>
<path d="M196.59 129.489C200.726 129.489 204.701 126.859 207.345 124.612C210.284 122.114 212.252 119.532 212.275 119.507C212.381 119.365 212.355 119.163 212.214 119.057C212.072 118.95 211.87 118.976 211.764 119.118C211.686 119.217 204.032 129.17 196.205 128.836C191.696 128.64 188.525 127.36 187.036 125.136C185.881 123.409 185.781 121.191 186.743 118.539C186.804 118.372 186.717 118.189 186.55 118.127C186.383 118.066 186.2 118.153 186.138 118.32C185.103 121.175 185.225 123.586 186.499 125.493C188.107 127.894 191.451 129.273 196.172 129.479C196.311 129.485 196.452 129.489 196.59 129.489Z" fill="#1649CC"/>
<path d="M168.043 135.105C168.159 135.105 168.267 135.044 168.325 134.938C172.869 126.554 174.67 118.057 174.69 117.97C174.725 117.797 174.616 117.626 174.442 117.591C174.268 117.556 174.098 117.665 174.062 117.838C174.046 117.922 172.258 126.332 167.762 134.63C167.679 134.787 167.737 134.98 167.891 135.067C167.939 135.093 167.991 135.105 168.045 135.105H168.043Z" fill="#1649CC"/>
<path d="M235.938 137.217C235.983 137.217 236.028 137.208 236.073 137.188C236.234 137.114 236.305 136.921 236.231 136.761C232.085 127.782 231.343 111.723 231.336 111.563C231.33 111.386 231.172 111.248 231.002 111.254C230.825 111.261 230.686 111.412 230.693 111.588C230.699 111.749 231.449 127.933 235.646 137.028C235.7 137.146 235.816 137.214 235.938 137.214V137.217Z" fill="#1649CC"/>
<path d="M201.151 165.186C203.926 165.186 207.416 164.356 211.5 161.714C211.648 161.617 211.693 161.418 211.596 161.27C211.5 161.122 211.3 161.077 211.152 161.174C200.652 167.963 194.51 162.569 194.252 162.338C194.121 162.219 193.918 162.228 193.799 162.36C193.68 162.492 193.69 162.694 193.818 162.813C193.86 162.852 196.497 165.186 201.151 165.186Z" fill="#1649CC"/>
<path d="M169.101 156.204C169.175 156.204 169.246 156.178 169.307 156.13C169.442 156.018 169.461 155.815 169.349 155.677C168.361 154.494 167.715 149.855 168.361 145.65C168.715 143.345 169.59 140.303 171.738 138.924C176.717 135.726 178.15 129.492 178.208 129.228C178.246 129.055 178.137 128.884 177.963 128.846C177.79 128.807 177.619 128.916 177.581 129.09C177.568 129.151 176.141 135.33 171.391 138.384C169.04 139.895 168.101 143.116 167.728 145.553C167.046 149.993 167.76 154.777 168.857 156.092C168.921 156.169 169.01 156.207 169.103 156.207L169.101 156.204Z" fill="#1649CC"/>
<path d="M190.15 107.753C200.846 107.554 204.406 101.729 204.561 101.468C204.651 101.314 204.599 101.118 204.448 101.028C204.294 100.938 204.098 100.989 204.008 101.14C203.969 101.205 200.074 107.525 188.423 107.091C188.246 107.091 188.095 107.223 188.088 107.4C188.082 107.577 188.22 107.728 188.397 107.734C188.998 107.757 189.584 107.76 190.147 107.75L190.15 107.753Z" fill="#262626"/>
<path d="M296.962 60.7392C297.074 60.7392 297.18 60.6814 297.242 60.5785C298.496 58.3828 298.219 54.7789 298.174 54.2806C298.994 50.6157 299.046 48.5228 298.332 47.8863C298.094 47.6741 297.817 47.6677 297.653 47.7255C297.486 47.7834 297.399 47.9667 297.457 48.137C297.515 48.2978 297.685 48.3846 297.846 48.3396C297.846 48.3396 297.882 48.3428 297.923 48.3878C298.097 48.5775 298.576 49.5612 297.534 54.1906C297.528 54.2227 297.525 54.2581 297.528 54.2935C297.531 54.332 297.901 58.1288 296.682 60.2602C296.595 60.4145 296.647 60.6106 296.801 60.6974C296.852 60.7264 296.907 60.7392 296.962 60.7392Z" fill="#262626"/>
<path d="M262.309 102.654C263.724 102.654 265.13 102.224 265.217 102.195C265.387 102.14 265.48 101.96 265.429 101.793C265.377 101.622 265.194 101.529 265.027 101.581C264.998 101.59 261.962 102.519 260.595 101.626C260.232 101.388 260.029 101.041 259.975 100.565C259.955 100.388 259.794 100.259 259.621 100.282C259.444 100.301 259.319 100.462 259.338 100.635C259.412 101.304 259.717 101.819 260.245 102.163C260.808 102.529 261.56 102.651 262.313 102.651L262.309 102.654Z" fill="#262626"/>
<path d="M146.453 110.891C146.566 110.891 146.675 110.83 146.736 110.724C146.823 110.569 146.765 110.373 146.611 110.286C144.819 109.293 141.143 109.28 140.989 109.28C140.812 109.28 140.667 109.425 140.667 109.602C140.667 109.778 140.812 109.923 140.989 109.923C141.024 109.923 144.655 109.936 146.302 110.846C146.35 110.875 146.405 110.888 146.456 110.888L146.453 110.891Z" fill="#262626"/>
<path d="M120.403 84.529C120.452 84.529 120.5 84.5194 120.548 84.4936C120.706 84.4133 120.77 84.2204 120.693 84.0628C120.294 83.2656 118.911 80.6712 117.834 80.6712C117.393 80.6712 116.576 79.202 116.088 77.8293C114.032 73.1517 112.589 72.5216 112.431 72.4669C112.264 72.4058 112.08 72.4958 112.019 72.663C111.961 72.827 112.045 73.0102 112.206 73.0713C112.244 73.0874 113.579 73.7207 115.486 78.0672C115.75 78.813 116.724 81.3174 117.831 81.3174C118.287 81.3174 119.381 82.8862 120.117 84.3554C120.175 84.4679 120.288 84.5322 120.407 84.5322L120.403 84.529Z" fill="#262626"/>
</g>
<defs>
<clipPath id="clip0_35_1364">
<rect width="200.998" height="199" fill="white" transform="translate(112.001 47)"/>
</clipPath>
</defs>
</svg>
