<?xml version="1.0" encoding="utf-8"?>
<!-- Generator: Adobe Illustrator 27.9.0, SVG Export Plug-In . SVG Version: 6.00 Build 0)  -->
<svg version="1.1" id="Layer_1" xmlns="http://www.w3.org/2000/svg" xmlns:xlink="http://www.w3.org/1999/xlink" x="0px" y="0px"
	 viewBox="0 0 512 512" style="enable-background:new 0 0 512 512;" xml:space="preserve">
<style type="text/css">
	.st0{fill:#FFFFFF;filter:url(#Adobe_OpacityMaskFilter);}
	.st1{mask:url(#a_00000052823533672349743160000012441419631585417915_);}
	.st2{fill:#D80027;}
	.st3{fill:#EEEEEE;}
</style>
<defs>
	<filter id="Adobe_OpacityMaskFilter" filterUnits="userSpaceOnUse" x="0" y="0" width="512" height="512">
		<feColorMatrix  type="matrix" values="1 0 0 0 0  0 1 0 0 0  0 0 1 0 0  0 0 0 1 0"/>
	</filter>
</defs>
<mask maskUnits="userSpaceOnUse" x="0" y="0" width="512" height="512" id="a_00000052823533672349743160000012441419631585417915_">
	<circle class="st0" cx="256" cy="256" r="256"/>
</mask>
<g class="st1">
	<path class="st2" d="M0,0h512v512H0V0z"/>
	<g>
		<path class="st3" d="M315.6,209.3l21,29l34-11.1l-21,29l21,28.9l-34-11.1l-21,29v-35.9l-34-11.1l34-11V209.3z"/>
		<path class="st3" d="M258.3,328.4c-39.9-0.1-72.2-32.6-72.1-72.5c0.1-39.9,32.6-72.2,72.5-72.1c11.9,0,23.5,3,34,8.6
			c-35.2-34.4-91.5-33.7-125.9,1.4s-33.7,91.5,1.4,125.9c34.6,33.8,89.8,33.8,124.4,0C282.1,325.4,270.3,328.4,258.3,328.4
			L258.3,328.4z"/>
	</g>
</g>
</svg>
