<?xml version="1.0" encoding="utf-8"?>
<!-- Generator: Adobe Illustrator 16.0.0, SVG Export Plug-In . SVG Version: 6.00 Build 0)  -->
<!DOCTYPE svg PUBLIC "-//W3C//DTD SVG 1.1//EN" "http://www.w3.org/Graphics/SVG/1.1/DTD/svg11.dtd">
<svg version="1.1" id="Layer_1" xmlns="http://www.w3.org/2000/svg" xmlns:xlink="http://www.w3.org/1999/xlink" x="0px" y="0px"
	 width="512px" height="512px" viewBox="0 0 512 512" enable-background="new 0 0 512 512" xml:space="preserve">
<g transform="translate(1 1)">
	<g>
		<g>
			<path fill="#BDBDBD" d="M280.6,195.267H383c5.12,0,8.533-3.413,8.533-8.533v-51.2c0-5.12-3.413-8.533-8.533-8.533H280.6
				c-5.12,0-8.533,3.413-8.533,8.533v51.2C272.067,191.853,275.48,195.267,280.6,195.267z M289.133,144.067h85.333V178.2h-85.333
				V144.067z"/>
			<path fill="#BDBDBD" d="M485.4,84.333h-68.267h-17.067V16.067C400.067,6.68,392.387-1,383-1H127
				c-9.388,0-17.067,7.681-17.067,17.067v68.267H92.867H24.6C10.093,84.334-1,95.427-1,109.934v187.733v102.399
				c0,14.507,11.093,25.601,25.6,25.601h57.99L69.827,490.52c-0.854,5.12,0.853,11.093,3.413,14.507
				C75.8,508.44,80.92,511,86.04,511h337.92c5.119,0,9.387-2.56,13.652-5.973c3.413-4.267,4.268-9.387,3.413-14.507l-13.108-64.853
				H485.4c14.507,0,25.601-11.094,25.601-25.601V297.668V109.933C511,95.427,499.906,84.333,485.4,84.333z M127,16.067h256v68.267
				H127V16.067z M118.467,101.4h273.067H408.6v85.333c0,14.507-11.093,25.6-25.6,25.6H127c-14.507,0-25.601-11.093-25.601-25.6
				V101.4H118.467z M24.6,101.4h59.733v85.333c0,23.893,18.772,42.667,42.667,42.667h256c23.893,0,42.666-18.773,42.666-42.667
				V101.4H485.4c5.12,0,8.533,3.413,8.533,8.533v179.199H16.067V109.933C16.067,104.813,19.48,101.4,24.6,101.4z M86.04,493.933
				l14.549-72.747c0.362-0.71,0.64-1.493,0.811-2.347l15.36-78.508h276.48L408.6,418.84c0.171,0.854,0.448,1.636,0.812,2.347
				l14.549,72.747H86.04L86.04,493.933z M493.933,400.067c0,5.12-3.413,8.533-8.533,8.533h-60.932L408.6,330.094
				c-0.853-4.268-4.267-6.827-8.533-6.827H109.933c-4.267,0-7.68,2.56-8.533,6.827L85.949,408.6H24.6
				c-5.12,0-8.533-3.413-8.533-8.533V306.2h477.867L493.933,400.067L493.933,400.067z"/>
			<path fill="#BDBDBD" d="M186.733,383h136.533c5.12,0,8.533-3.412,8.533-8.532s-3.413-8.533-8.533-8.533H186.733
				c-5.12,0-8.532,3.413-8.532,8.533S181.613,383,186.733,383z"/>
			<path fill="#BDBDBD" d="M161.133,425.668h187.733c5.119,0,8.532-3.413,8.532-8.533s-3.413-8.533-8.532-8.533H161.133
				c-5.12,0-8.533,3.413-8.533,8.533S156.013,425.668,161.133,425.668z"/>
			<path fill="#BDBDBD" d="M374.467,451.267H135.533c-5.12,0-8.533,3.413-8.533,8.533s3.413,8.532,8.533,8.532h238.933
				c5.12,0,8.533-3.412,8.533-8.532C383,454.68,379.587,451.267,374.467,451.267z"/>
		</g>
	</g>
</g>
</svg>
