<?xml version="1.0" encoding="utf-8"?>
<!-- Generator: Adobe Illustrator 16.0.0, SVG Export Plug-In . SVG Version: 6.00 Build 0)  -->
<!DOCTYPE svg PUBLIC "-//W3C//DTD SVG 1.1//EN" "http://www.w3.org/Graphics/SVG/1.1/DTD/svg11.dtd">
<svg version="1.1" id="Layer_1" xmlns="http://www.w3.org/2000/svg" xmlns:xlink="http://www.w3.org/1999/xlink" x="0px" y="0px"
	 width="512px" height="512px" viewBox="0 0 512 512" enable-background="new 0 0 512 512" xml:space="preserve">
<g>
	<g>
		<path fill="#BDBDBD" d="M494.479,138.557L364.04,3.018C362.183,1.09,359.621,0,356.945,0H162.535
			c-21.758,0-39.458,17.694-39.458,39.442v137.789H44.29c-16.278,0-29.521,13.239-29.521,29.513v147.744
			C14.769,370.761,28.012,384,44.29,384h78.787v88.628c0,21.71,17.7,39.372,39.458,39.372h295.237
			c21.757,0,39.458-17.652,39.458-39.351V145.385C497.231,142.839,496.243,140.392,494.479,138.557z M359.385,26.581
			l107.079,111.266H359.385V26.581z M44.29,364.308c-5.42,0-9.828-4.405-9.828-9.82V206.744c0-5.415,4.409-9.821,9.828-9.821
			h265.882c5.42,0,9.828,4.406,9.828,9.821v147.744c0,5.415-4.409,9.82-9.828,9.82H44.29z M477.537,472.649
			c0,10.84-8.866,19.659-19.766,19.659H162.535c-10.899,0-19.767-8.828-19.767-19.68V384h167.403
			c16.278,0,29.521-13.238,29.521-29.512V206.744c0-16.273-13.242-29.513-29.521-29.513H142.769V39.442
			c0-10.892,8.867-19.75,19.767-19.75h177.156v128c0,5.438,4.409,9.846,9.847,9.846h127.999V472.649L477.537,472.649z"/>
	</g>
</g>
<g>
	<g>
		<path fill="#BDBDBD" d="M132.481,249.894c-3.269-4.25-7.327-7.011-12.173-8.279c-3.154-0.846-9.923-1.269-20.308-1.269H72.596
			v84.577h17.077v-31.904h11.135c7.731,0,13.635-0.404,17.712-1.212c3-0.654,5.952-1.99,8.856-4.011
			c2.903-2.019,5.298-4.798,7.183-8.336s2.827-7.903,2.827-13.096C137.385,259.634,135.75,254.144,132.481,249.894z
			 M117.856,273.173c-1.288,1.886-3.066,3.27-5.337,4.154c-2.27,0.885-6.769,1.327-13.5,1.327h-9.346v-24h8.25
			c6.154,0,10.25,0.192,12.288,0.577c2.769,0.5,5.058,1.75,6.865,3.75s2.712,4.539,2.712,7.615
			C119.789,269.096,119.144,271.288,117.856,273.173z"/>
	</g>
</g>
<g>
	<g>
		<path fill="#BDBDBD" d="M219.481,263.452c-1.846-5.404-4.539-9.971-8.077-13.702c-3.537-3.73-7.788-6.327-12.75-7.789
			c-3.691-1.077-9.058-1.614-16.096-1.614h-31.212v84.577h32.135c6.309,0,11.347-0.597,15.115-1.789
			c5.039-1.615,9.039-3.865,12-6.75c3.923-3.809,6.942-8.788,9.058-14.942c1.731-5.039,2.597-11.039,2.597-18
			C222.25,275.519,221.327,268.856,219.481,263.452z M202.865,298.183c-1.154,3.789-2.645,6.51-4.472,8.163
			s-4.125,2.827-6.894,3.519c-2.115,0.539-5.559,0.809-10.327,0.809h-12.75l0,0v-56.02h7.673c6.961,0,11.635,0.269,14.02,0.808
			c3.191,0.692,5.826,2.02,7.903,3.981s3.692,4.692,4.847,8.192c1.153,3.5,1.73,8.519,1.73,15.058
			C204.596,289.231,204.019,294.394,202.865,298.183z"/>
	</g>
</g>
<g>
	<g>
		<polygon fill="#BDBDBD" points="294.827,254.654 294.827,240.346 236.846,240.346 236.846,324.924 253.923,324.924 
			253.923,288.981 289.231,288.981 289.231,274.673 253.923,274.673 253.923,254.654 		"/>
	</g>
</g>
</svg>
