<?xml version="1.0" standalone="no"?>
<!DOCTYPE svg PUBLIC "-//W3C//DTD SVG 20010904//EN"
 "http://www.w3.org/TR/2001/REC-SVG-20010904/DTD/svg10.dtd">
<svg version="1.0" xmlns="http://www.w3.org/2000/svg"
 width="700.000000pt" height="700.000000pt" viewBox="0 0 700.000000 700.000000"
 preserveAspectRatio="xMidYMid meet">
<metadata>
Created by potrace 1.14, written by Peter Selinger 2001-2017
</metadata>
<g transform="translate(0.000000,700.000000) scale(0.100000,-0.100000)"
fill="#000000" stroke="none">
<path d="M1704 5970 c-12 -4 -31 -21 -43 -36 l-21 -27 0 -1065 c0 -1060 0
-1066 21 -1109 28 -59 86 -107 219 -182 115 -66 324 -164 373 -176 l27 -7 0
1261 c0 1399 4 1308 -65 1337 -27 11 -87 14 -262 13 -125 0 -238 -4 -249 -9z"/>
<path d="M3980 5962 c-19 -9 -40 -28 -47 -42 -10 -20 -13 -297 -13 -1282 0
-751 4 -1258 9 -1258 15 0 168 68 275 122 241 121 319 181 344 266 18 59 17
2117 -1 2152 -26 53 -61 60 -307 60 -194 0 -230 -2 -260 -18z"/>
<path d="M5207 4060 c-105 -27 -197 -104 -244 -205 -23 -51 -28 -73 -28 -145
0 -77 3 -92 33 -152 64 -131 178 -201 327 -201 150 0 272 76 330 205 40 88 46
199 15 280 -48 129 -170 215 -315 223 -44 2 -97 0 -118 -5z"/>
<path d="M1433 3353 c-92 -80 -93 -80 -93 -114 0 -55 255 -314 460 -468 289
-217 609 -362 947 -428 123 -24 161 -26 358 -27 239 0 310 9 521 64 414 109
846 390 1176 763 89 101 89 111 -1 201 -47 47 -77 69 -93 69 -15 0 -69 -34
-139 -85 -376 -278 -719 -451 -1039 -523 -324 -73 -666 -57 -987 46 -281 90
-576 250 -845 457 -126 97 -149 112 -170 112 -10 0 -52 -30 -95 -67z"/>
<path d="M5049 2964 l-24 -26 -3 -906 c-2 -632 0 -918 8 -944 19 -65 39 -70
281 -66 l211 3 24 28 24 28 0 930 0 930 -25 24 -24 25 -224 0 -224 0 -24 -26z"/>
<path d="M1662 2504 l-22 -15 0 -699 0 -700 29 -32 29 -33 246 -3 c207 -3 250
-1 275 13 62 32 61 22 61 602 l0 528 -107 55 c-115 59 -301 178 -397 253 -65
51 -80 55 -114 31z"/>
<path d="M4399 2451 c-115 -80 -268 -170 -383 -228 l-96 -48 0 -540 c0 -593
-3 -568 60 -600 41 -21 464 -22 514 -1 70 29 66 -15 66 748 0 675 0 688 -20
708 -11 11 -28 20 -38 20 -10 0 -56 -26 -103 -59z"/>
</g>
</svg>
